<svg width="86" height="45" viewBox="0 0 86 45" fill="none" xmlns="http://www.w3.org/2000/svg">
<path fill-rule="evenodd" clip-rule="evenodd" d="M54.5762 0.780679C67.342 5.76617 85.3197 11.1041 83.0848 24.5362C80.7457 38.5949 62.1044 39.2085 47.8706 41.0834C31.0264 43.3023 7.4553 51.2158 2.14548 35.1981C-3.02786 19.5921 22.525 15.3417 36.3326 6.27783C42.1928 2.43099 48.038 -1.77272 54.5762 0.780679Z" fill="#FBBF24"/>
<path fill-rule="evenodd" clip-rule="evenodd" d="M54.5762 0.780679C67.342 5.76617 85.3197 11.1041 83.0848 24.5362C80.7457 38.5949 62.1044 39.2085 47.8706 41.0834C31.0264 43.3023 7.4553 51.2158 2.14548 35.1981C-3.02786 19.5921 22.525 15.3417 36.3326 6.27783C42.1928 2.43099 48.038 -1.77272 54.5762 0.780679Z" fill="url(#paint0_linear)"/>
<path d="M0 28.2497L0.228555 28.0753L0.246136 27.7089C0.539156 26.9994 0.838035 26.3189 1.14278 25.6676C1.45924 25.0162 1.78742 24.3474 2.12732 23.6612C2.23281 23.4402 2.33829 23.2192 2.44378 22.9982C2.56099 22.7772 2.67234 22.5504 2.77782 22.3178C2.7661 22.2713 2.76024 22.2247 2.76024 22.1782C2.76024 22.1201 2.77196 22.0561 2.7954 21.9863C2.9595 21.7537 3.08842 21.5443 3.18219 21.3582C3.28768 21.1721 3.3873 20.9802 3.48107 20.7825C3.58656 20.5498 3.6979 20.3172 3.81511 20.0846C3.94404 19.852 4.10227 19.6252 4.2898 19.4042L4.41287 19.2297L4.60626 19.2471C4.65315 19.2239 4.70003 19.2064 4.74691 19.1948C4.80552 19.1715 4.87584 19.1599 4.95789 19.1599L5.27435 19.2123C5.66113 19.0378 6.00104 18.7877 6.29405 18.462C6.59879 18.1247 6.90354 17.7235 7.20828 17.2582L7.41925 16.9616L7.70055 17.1361C7.75915 17.171 7.85292 17.2059 7.98185 17.2408C8.11077 17.2757 8.24556 17.3164 8.38621 17.3629C8.63235 17.421 8.87263 17.4908 9.10704 17.5722C9.34146 17.642 9.52313 17.7409 9.65206 17.8688L9.73996 18.0259C9.7634 18.1538 9.78098 18.2701 9.79271 18.3748C9.81615 18.4795 9.83959 18.5842 9.86303 18.6888C9.90991 18.9331 9.95094 19.1774 9.9861 19.4216C10.0213 19.6542 10.0447 19.9159 10.0564 20.2067C10.115 20.4393 10.1678 20.6778 10.2147 20.922C10.2733 21.1547 10.326 21.3873 10.3729 21.6199C10.4315 21.9572 10.496 22.2829 10.5663 22.5969C10.6366 22.8994 10.7304 23.1901 10.8476 23.4693C10.9648 23.4693 11.0351 23.4751 11.0585 23.4867C11.1992 23.4286 11.3633 23.3937 11.5508 23.3821L11.7794 23.3646L11.8497 23.574C11.8731 23.6089 11.9024 23.6438 11.9376 23.6787C11.9728 23.7135 12.0138 23.7484 12.0607 23.7833C12.2482 23.795 12.383 23.8357 12.465 23.9055C12.5588 23.9636 12.635 24.0218 12.6936 24.0799C12.717 24.1032 12.7463 24.1323 12.7815 24.1672C12.8167 24.1904 12.846 24.2079 12.8694 24.2195L13.1859 24.3416L13.0101 24.6731C12.8811 24.9174 12.6819 25.1558 12.4123 25.3884C12.1544 25.6211 11.8614 25.813 11.5332 25.9642C11.5567 26.0456 11.5684 26.1212 11.5684 26.191C11.5801 26.2608 11.5977 26.3422 11.6211 26.4353C11.668 26.6679 11.7032 26.9121 11.7266 27.168C11.7618 27.4123 11.7618 27.6682 11.7266 27.9357C11.6094 28.2381 11.4688 28.5114 11.3047 28.7557C11.1523 28.9883 10.9648 29.2035 10.7421 29.4012C10.5311 29.5873 10.2908 29.7443 10.0213 29.8723C9.75168 29.9886 9.47038 30.0526 9.17737 30.0642C9.01327 30.0293 8.89021 29.9886 8.80816 29.9421C8.73784 29.8955 8.67337 29.849 8.61477 29.8025C8.521 29.7327 8.44482 29.6862 8.38621 29.6629L8.15766 29.5582L8.22798 29.2965C8.26314 29.2035 8.25728 29.1221 8.2104 29.0523C8.17524 28.9825 8.09319 28.8894 7.96427 28.7731C7.91738 28.7382 7.87636 28.7033 7.8412 28.6685C7.80603 28.6219 7.76501 28.5754 7.71813 28.5289L7.36651 28.1276L7.94668 27.9706C8.29831 27.8775 8.53272 27.7612 8.64993 27.6216C8.76714 27.4704 8.81402 27.2087 8.79058 26.8365C8.49756 26.7784 8.25728 26.7726 8.06975 26.8191C7.88222 26.854 7.69469 26.8947 7.50715 26.9412C7.23758 27.011 6.97386 27.075 6.716 27.1331C6.45815 27.1797 6.17685 27.2029 5.87211 27.2029C5.67285 27.2029 5.46188 27.1855 5.23919 27.1506L5.04579 27.1331L4.99305 26.9412C4.99305 26.918 4.97547 26.8947 4.94031 26.8714C4.91686 26.8365 4.89342 26.8075 4.86998 26.7842C4.81138 26.7144 4.74105 26.6214 4.65901 26.505C4.57696 26.3887 4.55938 26.2433 4.60626 26.0689C4.52422 25.9409 4.47734 25.8072 4.46561 25.6676C4.41873 25.7606 4.37771 25.8537 4.34255 25.9467C4.3191 26.0282 4.29566 26.1096 4.27222 26.191L4.2019 26.4178L3.97334 26.4527C3.9499 26.476 3.92646 26.5109 3.90302 26.5574C3.8913 26.6039 3.8913 26.6388 3.90302 26.6621L3.97334 26.854L3.79753 27.011C3.77409 27.0459 3.74479 27.075 3.70962 27.0982C3.67446 27.1215 3.64516 27.1448 3.62172 27.168C3.59828 27.296 3.56311 27.4181 3.51623 27.5344C3.48107 27.6507 3.44005 27.767 3.39316 27.8833C3.33456 28.0694 3.27596 28.2497 3.21735 28.4242C3.17047 28.5987 3.14703 28.7731 3.14703 28.9476L3.0767 29.1744C3.0181 29.2675 2.94191 29.3372 2.84815 29.3838C2.7661 29.4303 2.68406 29.471 2.60201 29.5059C2.4848 29.5524 2.40276 29.599 2.35588 29.6455L2.30313 29.8723L2.03941 29.9072C1.88704 29.9421 1.7757 29.9653 1.70537 29.977C1.64677 29.9886 1.57644 29.9944 1.4944 29.9944L1.26584 29.977C1.12519 29.8374 1.00799 29.7327 0.91422 29.6629C0.832175 29.5815 0.732548 29.5117 0.615341 29.4536L0.509854 29.314C0.462971 29.2209 0.433669 29.1395 0.421948 29.0697C0.410227 28.9883 0.392646 28.9069 0.369204 28.8255C0.345763 28.6743 0.3106 28.5696 0.263717 28.5114L0 28.2497ZM5.60839 23.7135C5.4443 23.9462 5.28607 24.1904 5.1337 24.4463C5.21574 24.4347 5.29193 24.4289 5.36225 24.4289C5.4443 24.4289 5.52634 24.423 5.60839 24.4114C6.01862 24.3882 6.39954 24.3591 6.75117 24.3242C7.10279 24.2893 7.48371 24.2311 7.89394 24.1497C7.80017 23.7194 7.69469 23.2832 7.57748 22.8412C7.47199 22.3876 7.35478 21.934 7.22586 21.4803L7.13795 21.6548C6.84493 21.9689 6.56363 22.3062 6.29405 22.6667C6.02448 23.0273 5.80178 23.3704 5.62597 23.6961L5.60839 23.7135Z" fill="#242424"/>
<path d="M25.2641 29.5931C25.1469 29.6513 25.0356 29.7036 24.9301 29.7502C24.8363 29.7967 24.725 29.8199 24.596 29.8199C24.1389 29.4826 23.8987 28.8953 23.8752 28.0578C23.8635 27.2204 24.0452 26.1561 24.4202 24.865C24.4788 24.8301 24.5081 24.7604 24.5081 24.6557L24.3499 24.4812C24.303 24.4812 24.2561 24.487 24.2093 24.4987C24.1741 24.5103 24.1448 24.551 24.1214 24.6208C23.8166 24.8418 23.4826 25.0744 23.1192 25.3187C22.7559 25.5513 22.375 25.7723 21.9764 25.9816C21.5897 26.1794 21.1912 26.3422 20.7809 26.4701C20.3824 26.5981 19.9898 26.6621 19.603 26.6621C18.6184 26.6621 17.88 26.1677 17.3878 25.1791L17.2471 24.9174L17.1065 25.1442C17.0713 25.1907 17.0186 25.2896 16.9482 25.4408C16.8779 25.5804 16.8076 25.7432 16.7373 25.9293C16.6669 26.1154 16.6025 26.3073 16.5439 26.505C16.497 26.6911 16.4794 26.854 16.4911 26.9936C16.3856 27.0982 16.2743 27.2204 16.1571 27.3599C16.0399 27.4995 15.952 27.6565 15.8934 27.831C15.8699 27.9241 15.8816 28.0113 15.9285 28.0927C15.9051 28.1974 15.8523 28.2788 15.7703 28.337C15.7234 28.3951 15.6707 28.4533 15.6121 28.5114C15.5652 28.558 15.5242 28.6103 15.489 28.6685C15.4656 28.7266 15.448 28.7848 15.4363 28.8429C15.4363 28.9011 15.4304 28.9592 15.4187 29.0174C15.4187 29.0988 15.407 29.1744 15.3835 29.2442C15.1843 29.6513 15.026 29.913 14.9088 30.0293C14.7916 30.1573 14.6334 30.2212 14.4341 30.2212C14.3404 30.2212 14.188 30.2038 13.977 30.1689C13.8247 30.006 13.684 29.7851 13.5551 29.5059C13.4379 29.2151 13.3441 28.9069 13.2738 28.5812C13.2152 28.2555 13.1859 27.9299 13.1859 27.6042C13.1976 27.2669 13.2562 26.9761 13.3617 26.7319C13.3617 26.7202 13.4086 26.6039 13.5023 26.3829C13.5961 26.1619 13.7133 25.877 13.854 25.528C14.0063 25.1791 14.1763 24.7952 14.3638 24.3765C14.5513 23.9462 14.7389 23.5333 14.9264 23.1378C15.1139 22.7307 15.2897 22.3585 15.4538 22.0212C15.6297 21.6839 15.7762 21.428 15.8934 21.2535C15.9871 21.114 16.0692 20.986 16.1395 20.8697C16.2215 20.7418 16.2977 20.6196 16.3681 20.5033C16.579 20.1428 16.7783 19.8462 16.9658 19.6135C17.1651 19.3693 17.4522 19.1774 17.8273 19.0378C18.0852 19.1425 18.2727 19.2646 18.3899 19.4042L18.4251 19.5961C18.4719 19.7124 18.5423 19.7706 18.636 19.7706C18.765 19.8054 18.8704 19.8403 18.9525 19.8752C19.0463 19.8985 19.1459 19.9218 19.2514 19.945C19.3334 20.0381 19.4096 20.1486 19.4799 20.2765C19.5737 20.4161 19.6616 20.5557 19.7436 20.6952C19.8374 20.8232 19.9077 20.9569 19.9546 21.0965C20.0132 21.2245 20.0425 21.3582 20.0425 21.4978C20.0542 21.6374 20.0308 21.7828 19.9722 21.934L19.9898 22.1084C20.0484 22.2131 20.0601 22.3585 20.0249 22.5446C20.0132 22.626 20.0074 22.7133 20.0074 22.8063C20.0074 22.8877 20.0191 22.9808 20.0425 23.0855C20.2535 23.2483 20.441 23.3297 20.6051 23.3297C20.7927 23.3297 20.9626 23.289 21.115 23.2076C21.2791 23.1145 21.4314 23.0215 21.5721 22.9284C21.6658 22.8586 21.7596 22.8005 21.8534 22.754C21.9471 22.6958 22.0409 22.6609 22.1347 22.6493C22.3457 22.4516 22.5332 22.2771 22.6973 22.1259C22.8731 21.9747 23.0548 21.8235 23.2423 21.6723C23.5939 21.3931 23.9338 21.0907 24.262 20.765C24.5902 20.4393 24.8539 20.0323 25.0532 19.5437C25.1704 19.474 25.2934 19.4391 25.4224 19.4391C25.5513 19.4391 25.6861 19.4681 25.8267 19.5263C25.9674 19.5845 26.1022 19.6426 26.2311 19.7008C26.2663 19.724 26.2956 19.7415 26.319 19.7531C26.3542 19.7647 26.3835 19.7764 26.4069 19.788C26.4069 19.9043 26.4538 20.0032 26.5476 20.0846C26.5944 20.1195 26.6237 20.1428 26.6355 20.1544C26.6472 20.166 26.6648 20.1776 26.6882 20.1893C26.864 20.2823 26.9754 20.3754 27.0222 20.4684C27.1043 20.7359 27.2508 20.9395 27.4618 21.0791C27.4383 21.1954 27.4383 21.3059 27.4618 21.4106C27.4969 21.5036 27.538 21.6025 27.5848 21.7072C27.5966 21.742 27.6083 21.7769 27.62 21.8118C27.6317 21.8467 27.6493 21.8874 27.6727 21.934L27.3387 21.8991L27.3914 22.2306C27.4149 22.3934 27.3973 22.5737 27.3387 22.7714C27.2918 22.9691 27.2332 23.1262 27.1629 23.2425C27.1746 23.5449 27.1805 23.7833 27.1805 23.9578C27.1922 24.1206 27.1863 24.2777 27.1629 24.4289C27.1395 24.5684 27.1043 24.7022 27.0574 24.8301C27.0222 24.9581 26.9695 25.0977 26.8992 25.2489C26.9461 25.9933 26.8582 26.6737 26.6355 27.2902C26.4245 27.895 26.2018 28.4649 25.9674 28.9999C25.9439 29.0581 25.9146 29.1163 25.8795 29.1744C25.856 29.2326 25.8326 29.2907 25.8091 29.3489C25.7037 29.3838 25.6099 29.4245 25.5278 29.471C25.4458 29.5059 25.3579 29.5466 25.2641 29.5931Z" fill="#242424"/>
<path d="M37.5709 20.0846C37.5827 20.166 37.5827 20.23 37.5709 20.2765C37.5709 20.3114 37.5651 20.3463 37.5534 20.3812C37.5534 20.4161 37.5534 20.4568 37.5534 20.5033C37.5534 20.5382 37.5651 20.5964 37.5885 20.6778C37.3424 21.0733 37.0552 21.3466 36.727 21.4978C36.4106 21.6374 36.0648 21.742 35.6898 21.8118C35.3147 21.87 34.9279 21.934 34.5294 22.0038C34.1426 22.0735 33.7558 22.2247 33.369 22.4574C33.2167 22.3992 33.076 22.3992 32.9471 22.4574C32.8299 22.5155 32.6541 22.533 32.4197 22.5097C32.3493 22.5795 32.2614 22.6318 32.1559 22.6667C32.0505 22.69 31.945 22.7191 31.8395 22.754C31.8864 22.8586 31.9039 22.9691 31.8922 23.0855C31.8922 23.1901 31.9098 23.2774 31.945 23.3472C32.3552 23.3821 32.8064 23.3762 33.2987 23.3297C33.8027 23.2832 34.295 23.2541 34.7755 23.2425C34.7873 23.3006 34.7814 23.3413 34.758 23.3646C34.7345 23.3762 34.7286 23.4053 34.7404 23.4518C34.8224 23.51 34.9045 23.5856 34.9865 23.6787C35.0686 23.7601 35.1506 23.8415 35.2326 23.9229C35.3147 24.0043 35.3967 24.0741 35.4788 24.1323C35.5725 24.1788 35.678 24.1962 35.7952 24.1846C35.8421 24.2777 35.8714 24.3823 35.8831 24.4987C35.9066 24.6033 35.8949 24.7138 35.848 24.8301C35.6604 24.9581 35.4729 25.0918 35.2854 25.2314C35.0979 25.3594 34.8986 25.4757 34.6876 25.5804C34.4884 25.685 34.2715 25.7723 34.0371 25.8421C33.8144 25.9002 33.5624 25.9235 33.2811 25.9118C33.2225 25.9118 33.1756 25.9118 33.1405 25.9118C33.117 25.9118 33.0819 25.8944 33.035 25.8595C32.9412 25.9177 32.8064 25.9351 32.6306 25.9118C32.4665 25.8886 32.3376 25.906 32.2438 25.9642C32.1149 25.906 31.9567 25.8828 31.7692 25.8944C31.5933 25.8944 31.4351 25.8711 31.2945 25.8246C31.1069 26.0689 30.937 26.3306 30.7846 26.6097C30.6322 26.8889 30.4975 27.1855 30.3802 27.4995C30.7787 27.5577 31.1069 27.5809 31.3648 27.5693C31.6344 27.5577 31.8864 27.5402 32.1208 27.517C32.3552 27.4821 32.5955 27.453 32.8416 27.4297C33.0877 27.3948 33.3983 27.3832 33.7734 27.3948C34.0078 27.2669 34.2833 27.1855 34.5997 27.1506C34.9279 27.1041 35.2268 27.0343 35.4964 26.9412C35.5901 26.9761 35.6722 27.0401 35.7425 27.1331C35.8128 27.2145 35.8773 27.296 35.9359 27.3774C36.0062 27.4472 36.0765 27.5111 36.1469 27.5693C36.2172 27.6275 36.3051 27.6507 36.4106 27.6391C36.4575 27.6856 36.4868 27.7438 36.4985 27.8136C36.5219 27.8717 36.5395 27.9299 36.5512 27.988C36.563 28.0462 36.5805 28.0985 36.604 28.145C36.6391 28.1799 36.6919 28.1916 36.7622 28.1799C36.5864 28.5638 36.3813 28.8604 36.1469 29.0697C35.9242 29.2675 35.6663 29.4187 35.3733 29.5233C35.0803 29.628 34.7521 29.7094 34.3887 29.7676C34.0371 29.8258 33.6445 29.8955 33.2108 29.977C33.1053 30.0002 33.0174 29.9944 32.9471 29.9595C32.8768 29.9363 32.7947 29.9246 32.701 29.9246C32.4314 29.9828 32.1091 30.0351 31.734 30.0816C31.3589 30.1282 30.978 30.1456 30.5912 30.134C30.2044 30.1224 29.8352 30.07 29.4836 29.977C29.132 29.8955 28.8448 29.7443 28.6221 29.5233C28.5284 29.4419 28.4639 29.3489 28.4287 29.2442C28.4053 29.1279 28.3291 29.0407 28.2002 28.9825C28.1885 28.8313 28.165 28.6626 28.1299 28.4765C28.0947 28.2904 28.0595 28.0985 28.0244 27.9008C27.9892 27.6914 27.9599 27.4879 27.9365 27.2902C27.9247 27.0924 27.9365 26.9121 27.9716 26.7493C28.0068 26.5748 28.0771 26.4178 28.1826 26.2782C28.2998 26.1387 28.3408 25.9875 28.3057 25.8246C28.3643 25.813 28.3994 25.7839 28.4112 25.7374C28.4229 25.6792 28.4698 25.656 28.5518 25.6676C28.6221 25.4582 28.6983 25.2605 28.7804 25.0744C28.8624 24.8883 28.9444 24.708 29.0265 24.5335C29.1203 24.3591 29.2082 24.1846 29.2902 24.0101C29.384 23.824 29.4719 23.6205 29.5539 23.3995C29.3898 23.2483 29.2668 23.0855 29.1847 22.911C29.1144 22.7249 29.0617 22.5446 29.0265 22.3701C28.9913 22.184 28.962 21.9979 28.9386 21.8118C28.9151 21.6141 28.8741 21.4164 28.8155 21.2186C28.9327 21.0442 29.0734 20.9046 29.2375 20.7999C29.4133 20.6836 29.6008 20.5906 29.8001 20.5208C29.9993 20.451 30.2162 20.3928 30.4506 20.3463C30.685 20.2998 30.9311 20.2474 31.189 20.1893C31.6578 20.0381 32.0739 19.9218 32.4372 19.8403C32.8123 19.7589 33.1756 19.695 33.5273 19.6484C33.8906 19.5903 34.2657 19.5379 34.6525 19.4914C35.0392 19.4449 35.4788 19.3751 35.9711 19.282C36.0765 19.3867 36.1762 19.4391 36.2699 19.4391C36.3168 19.3344 36.3696 19.3053 36.4282 19.3518C36.4985 19.3867 36.5278 19.3518 36.5161 19.2471C36.6333 19.4449 36.7798 19.6135 36.9556 19.7531C37.1431 19.8811 37.3482 19.9915 37.5709 20.0846Z" fill="#242424"/>
<path d="M40.7531 26.7319C40.6476 26.7551 40.5715 26.8191 40.5246 26.9238C40.4777 27.0168 40.4308 27.1157 40.3839 27.2204C40.3488 27.325 40.3077 27.4239 40.2609 27.517C40.2257 27.5984 40.1671 27.6391 40.085 27.6391C40.0733 27.7321 40.0382 27.8136 39.9796 27.8833C39.9327 27.9531 39.8858 28.0287 39.8389 28.1102C39.792 28.1799 39.7569 28.2614 39.7334 28.3544C39.71 28.4358 39.7217 28.5347 39.7686 28.651C39.6748 28.7208 39.6162 28.8197 39.5928 28.9476C39.5693 29.0755 39.54 29.1977 39.5049 29.314C39.4814 29.4303 39.4345 29.5292 39.3642 29.6106C39.2939 29.692 39.165 29.7269 38.9774 29.7153C38.9423 29.7618 38.9364 29.7909 38.9599 29.8025C38.9833 29.8141 39.0009 29.8548 39.0126 29.9246C38.8837 29.9014 38.784 29.9072 38.7137 29.9421C38.6551 29.9886 38.5789 30.0177 38.4852 30.0293C38.2625 29.9595 38.0749 29.8374 37.9226 29.6629C37.7819 29.4885 37.653 29.2965 37.5358 29.0872C37.4303 28.8662 37.3307 28.6452 37.2369 28.4242C37.1549 28.2032 37.0728 28.0113 36.9908 27.8485C37.0259 27.7205 37.0318 27.5984 37.0083 27.4821C36.9849 27.3541 36.9439 27.2494 36.8853 27.168C37.4596 25.9584 38.0867 24.6673 38.7665 23.2948C39.4463 21.9223 40.0909 20.5673 40.7004 19.2297C40.97 19.3344 41.2337 19.4565 41.4915 19.5961C41.7611 19.724 42.0014 19.8752 42.2124 20.0497C42.4351 20.2242 42.6226 20.4277 42.775 20.6603C42.9273 20.8813 43.027 21.1314 43.0738 21.4106C43.0504 21.4803 43.0211 21.5094 42.9859 21.4978C42.9625 21.4745 42.9391 21.4803 42.9156 21.5152C42.9625 21.5734 42.9859 21.6141 42.9859 21.6374C42.9977 21.6606 42.9977 21.6839 42.9859 21.7072C42.9859 21.7304 42.9859 21.7653 42.9859 21.8118C42.9859 21.8467 43.0035 21.8991 43.0387 21.9689C42.9918 21.9572 42.9566 21.963 42.9332 21.9863C42.9215 22.0096 42.8863 22.0096 42.8277 21.9863C42.8746 22.1142 42.8863 22.2189 42.8629 22.3003C42.8511 22.3818 42.8277 22.4574 42.7925 22.5272C42.7574 22.5853 42.7281 22.6551 42.7046 22.7365C42.6812 22.8063 42.6871 22.8994 42.7222 23.0157C42.6871 23.0157 42.6578 23.0273 42.6343 23.0506C42.6226 23.0622 42.6109 23.0796 42.5991 23.1029C42.5874 23.1145 42.5698 23.132 42.5464 23.1552C42.5347 23.1669 42.5112 23.1669 42.4761 23.1552C42.5112 23.4111 42.523 23.667 42.5112 23.9229C42.4995 24.1788 42.4878 24.4405 42.4761 24.708C42.4761 24.9639 42.4819 25.2372 42.4937 25.528C42.5054 25.8072 42.5464 26.0979 42.6167 26.4004C43.0387 26.1561 43.3727 25.8421 43.6189 25.4582C43.8767 25.0744 44.0818 24.644 44.2342 24.1672C44.3983 23.6903 44.5214 23.1785 44.6034 22.6318C44.6854 22.0852 44.7734 21.5269 44.8671 20.9569C44.9726 20.8523 45.0546 20.7243 45.1133 20.5731C45.1719 20.4219 45.2246 20.2649 45.2715 20.102C45.3184 19.9276 45.3652 19.7589 45.4121 19.5961C45.459 19.4216 45.5176 19.2646 45.5879 19.125C45.7638 19.1483 45.9103 19.2064 46.0275 19.2995C46.1564 19.3809 46.2736 19.474 46.3791 19.5786C46.4846 19.6717 46.5959 19.7647 46.7131 19.8578C46.8303 19.9392 46.9769 19.9915 47.1527 20.0148C47.2933 20.2125 47.4222 20.4045 47.5395 20.5906C47.6567 20.7767 47.7328 20.9744 47.768 21.1837C47.7094 21.2768 47.6625 21.3815 47.6274 21.4978C47.6039 21.6141 47.5746 21.7304 47.5395 21.8467C47.5043 21.963 47.4574 22.0735 47.3988 22.1782C47.3402 22.2713 47.2582 22.3527 47.1527 22.4225C47.1175 22.7249 47.0706 23.004 47.012 23.2599C46.9651 23.5042 46.9124 23.7484 46.8538 23.9927C46.8069 24.2369 46.7659 24.4928 46.7307 24.7604C46.6956 25.0162 46.6838 25.3012 46.6956 25.6153C46.6018 25.8828 46.5022 26.1677 46.3967 26.4701C46.2912 26.7726 46.2091 27.0459 46.1505 27.2902C45.963 27.4414 45.8165 27.6216 45.711 27.831C45.6055 28.0404 45.4942 28.2497 45.377 28.4591C45.3301 28.5056 45.3008 28.5172 45.2891 28.494C45.2773 28.4707 45.2363 28.4533 45.166 28.4416C45.1777 28.4882 45.1777 28.5231 45.166 28.5463C45.1543 28.5696 45.1367 28.5928 45.1133 28.6161C45.1015 28.6277 45.0898 28.651 45.0781 28.6859C45.0781 28.7208 45.0898 28.7673 45.1133 28.8255C44.9492 28.8953 44.8027 28.9941 44.6737 29.1221C44.5448 29.25 44.4041 29.3663 44.2518 29.471C44.1111 29.5757 43.9353 29.6455 43.7243 29.6804C43.5251 29.7153 43.2614 29.6746 42.9332 29.5582C42.4526 29.2093 42.0248 28.808 41.6498 28.3544C41.2864 27.9008 40.9875 27.3599 40.7531 26.7319Z" fill="#242424"/>
<path d="M57.1212 20.0846C57.1329 20.166 57.1329 20.23 57.1212 20.2765C57.1212 20.3114 57.1153 20.3463 57.1036 20.3812C57.1036 20.4161 57.1036 20.4568 57.1036 20.5033C57.1036 20.5382 57.1153 20.5964 57.1388 20.6778C56.8926 21.0733 56.6055 21.3466 56.2773 21.4978C55.9608 21.6374 55.6151 21.742 55.24 21.8118C54.8649 21.87 54.4782 21.934 54.0796 22.0038C53.6929 22.0735 53.3061 22.2247 52.9193 22.4574C52.7669 22.3992 52.6263 22.3992 52.4973 22.4574C52.3801 22.5155 52.2043 22.533 51.9699 22.5097C51.8996 22.5795 51.8117 22.6318 51.7062 22.6667C51.6007 22.69 51.4952 22.7191 51.3897 22.754C51.4366 22.8586 51.4542 22.9691 51.4425 23.0855C51.4425 23.1901 51.4601 23.2774 51.4952 23.3472C51.9054 23.3821 52.3567 23.3762 52.849 23.3297C53.353 23.2832 53.8452 23.2541 54.3258 23.2425C54.3375 23.3006 54.3316 23.3413 54.3082 23.3646C54.2848 23.3762 54.2789 23.4053 54.2906 23.4518C54.3727 23.51 54.4547 23.5856 54.5368 23.6787C54.6188 23.7601 54.7008 23.8415 54.7829 23.9229C54.8649 24.0043 54.947 24.0741 55.029 24.1323C55.1228 24.1788 55.2283 24.1962 55.3455 24.1846C55.3924 24.2777 55.4217 24.3823 55.4334 24.4987C55.4568 24.6033 55.4451 24.7138 55.3982 24.8301C55.2107 24.9581 55.0232 25.0918 54.8356 25.2314C54.6481 25.3594 54.4488 25.4757 54.2379 25.5804C54.0386 25.685 53.8218 25.7723 53.5874 25.8421C53.3647 25.9002 53.1127 25.9235 52.8314 25.9118C52.7728 25.9118 52.7259 25.9118 52.6907 25.9118C52.6673 25.9118 52.6321 25.8944 52.5852 25.8595C52.4915 25.9177 52.3567 25.9351 52.1809 25.9118C52.0168 25.8886 51.8879 25.906 51.7941 25.9642C51.6652 25.906 51.5069 25.8828 51.3194 25.8944C51.1436 25.8944 50.9854 25.8711 50.8447 25.8246C50.6572 26.0689 50.4872 26.3306 50.3349 26.6097C50.1825 26.8889 50.0477 27.1855 49.9305 27.4995C50.329 27.5577 50.6572 27.5809 50.915 27.5693C51.1846 27.5577 51.4366 27.5402 51.671 27.517C51.9054 27.4821 52.1457 27.453 52.3919 27.4297C52.638 27.3948 52.9486 27.3832 53.3237 27.3948C53.5581 27.2669 53.8335 27.1855 54.15 27.1506C54.4782 27.1041 54.777 27.0343 55.0466 26.9412C55.1404 26.9761 55.2224 27.0401 55.2927 27.1331C55.3631 27.2145 55.4275 27.296 55.4861 27.3774C55.5565 27.4472 55.6268 27.5111 55.6971 27.5693C55.7674 27.6275 55.8553 27.6507 55.9608 27.6391C56.0077 27.6856 56.037 27.7438 56.0487 27.8136C56.0722 27.8717 56.0898 27.9299 56.1015 27.988C56.1132 28.0462 56.1308 28.0985 56.1542 28.145C56.1894 28.1799 56.2421 28.1916 56.3125 28.1799C56.1366 28.5638 55.9315 28.8604 55.6971 29.0697C55.4744 29.2675 55.2166 29.4187 54.9235 29.5233C54.6305 29.628 54.3023 29.7094 53.939 29.7676C53.5874 29.8258 53.1947 29.8955 52.7611 29.977C52.6556 30.0002 52.5677 29.9944 52.4973 29.9595C52.427 29.9363 52.345 29.9246 52.2512 29.9246C51.9816 29.9828 51.6593 30.0351 51.2842 30.0816C50.9092 30.1282 50.5283 30.1456 50.1415 30.134C49.7547 30.1224 49.3855 30.07 49.0339 29.977C48.6822 29.8955 48.3951 29.7443 48.1724 29.5233C48.0786 29.4419 48.0141 29.3489 47.979 29.2442C47.9555 29.1279 47.8794 29.0407 47.7504 28.9825C47.7387 28.8313 47.7153 28.6626 47.6801 28.4765C47.6449 28.2904 47.6098 28.0985 47.5746 27.9008C47.5395 27.6914 47.5102 27.4879 47.4867 27.2902C47.475 27.0924 47.4867 26.9121 47.5219 26.7493C47.557 26.5748 47.6274 26.4178 47.7328 26.2782C47.8501 26.1387 47.8911 25.9875 47.8559 25.8246C47.9145 25.813 47.9497 25.7839 47.9614 25.7374C47.9731 25.6792 48.02 25.656 48.1021 25.6676C48.1724 25.4582 48.2486 25.2605 48.3306 25.0744C48.4127 24.8883 48.4947 24.708 48.5767 24.5335C48.6705 24.3591 48.7584 24.1846 48.8405 24.0101C48.9342 23.824 49.0221 23.6205 49.1042 23.3995C48.9401 23.2483 48.817 23.0855 48.735 22.911C48.6646 22.7249 48.6119 22.5446 48.5767 22.3701C48.5416 22.184 48.5123 21.9979 48.4888 21.8118C48.4654 21.6141 48.4244 21.4164 48.3658 21.2186C48.483 21.0442 48.6236 20.9046 48.7877 20.7999C48.9635 20.6836 49.1511 20.5906 49.3503 20.5208C49.5496 20.451 49.7664 20.3928 50.0008 20.3463C50.2352 20.2998 50.4814 20.2474 50.7392 20.1893C51.2081 20.0381 51.6241 19.9218 51.9875 19.8403C52.3626 19.7589 52.7259 19.695 53.0775 19.6484C53.4409 19.5903 53.8159 19.5379 54.2027 19.4914C54.5895 19.4449 55.029 19.3751 55.5213 19.282C55.6268 19.3867 55.7264 19.4391 55.8202 19.4391C55.8671 19.3344 55.9198 19.3053 55.9784 19.3518C56.0487 19.3867 56.078 19.3518 56.0663 19.2471C56.1835 19.4449 56.33 19.6135 56.5058 19.7531C56.6934 19.8811 56.8985 19.9915 57.1212 20.0846Z" fill="#242424"/>
<path d="M59.354 28.0927C59.2251 28.558 59.1079 28.9127 59.0024 29.157C58.9086 29.3896 58.7621 29.6338 58.5628 29.8897C58.4105 29.8665 58.305 29.8839 58.2464 29.9421C58.1878 30.0002 58.1233 30.0526 58.053 30.0991C57.9475 30.1224 57.8713 30.1224 57.8244 30.0991C57.7775 30.0758 57.7365 30.0468 57.7014 30.0119C57.6662 29.9886 57.6193 29.9595 57.5607 29.9246C57.5138 29.9014 57.4376 29.8897 57.3322 29.8897C57.3087 29.7967 57.2794 29.7094 57.2443 29.628C57.2208 29.5466 57.1446 29.5175 57.0157 29.5408C57.0391 29.4477 57.045 29.3721 57.0333 29.314C57.0216 29.2442 57.004 29.186 56.9805 29.1395C56.9688 29.0814 56.9571 29.029 56.9454 28.9825C56.9337 28.9243 56.9395 28.8546 56.963 28.7731C56.9044 28.7731 56.8575 28.7324 56.8223 28.651C56.7871 28.5696 56.7461 28.4882 56.6992 28.4067C56.7344 28.1974 56.7696 27.9997 56.8047 27.8136C56.8399 27.6275 56.8809 27.453 56.9278 27.2902C56.9864 27.1273 57.0333 26.9645 57.0684 26.8016C57.1036 26.6388 57.086 26.4701 57.0157 26.2957C57.0626 26.3306 57.0977 26.3248 57.1212 26.2782C57.1446 26.2201 57.1622 26.1503 57.1739 26.0689C57.1856 25.9758 57.1915 25.8886 57.1915 25.8072C57.1915 25.7141 57.1856 25.6385 57.1739 25.5804C57.2911 25.2779 57.3849 24.9697 57.4552 24.6557C57.5373 24.33 57.6076 24.0101 57.6662 23.6961C57.7365 23.3821 57.8069 23.0738 57.8772 22.7714C57.9475 22.469 58.0413 22.1899 58.1585 21.934C58.2874 21.9107 58.4281 21.9281 58.5804 21.9863C58.7445 22.0328 58.8441 22.0968 58.8793 22.1782C59.184 21.9456 59.4536 21.6664 59.688 21.3408C59.9225 21.0035 60.1627 20.6778 60.4089 20.3637C60.655 20.0497 60.9246 19.7706 61.2176 19.5263C61.5223 19.282 61.9033 19.1367 62.3604 19.0901C62.5948 19.2646 62.8526 19.4449 63.1339 19.631C63.427 19.8054 63.6672 20.0381 63.8548 20.3289C63.9485 20.3754 64.0247 20.4277 64.0833 20.4859C64.1536 20.5324 64.2357 20.5847 64.3295 20.6429V20.8523C64.4701 20.9802 64.5815 21.1314 64.6635 21.3059C64.7573 21.4687 64.8393 21.649 64.9096 21.8467C64.98 22.0328 65.0503 22.2247 65.1206 22.4225C65.1909 22.6086 65.273 22.7889 65.3668 22.9633C65.3433 23.0215 65.3316 23.0738 65.3316 23.1204C65.3316 23.1552 65.3374 23.196 65.3492 23.2425C65.3726 23.289 65.3902 23.3355 65.4019 23.3821C65.4136 23.4286 65.4136 23.4926 65.4019 23.574C65.3668 24.0857 65.1968 24.4987 64.8921 24.8127C64.599 25.1267 64.2416 25.3884 63.8196 25.5978C63.3977 25.7955 62.9464 25.9642 62.4659 26.1038C61.9853 26.2433 61.5516 26.3945 61.1649 26.5574C61.1649 26.6039 61.1824 26.6272 61.2176 26.6272C61.2645 26.6272 61.2821 26.6562 61.2703 26.7144C61.5516 26.8889 61.7743 27.0284 61.9384 27.1331C62.1025 27.2378 62.2549 27.325 62.3955 27.3948C62.5479 27.4646 62.7061 27.5286 62.8702 27.5867C63.046 27.6333 63.2863 27.6914 63.5911 27.7612C63.8958 27.831 64.1302 27.8892 64.2943 27.9357C64.4701 27.9706 64.6283 28.0055 64.769 28.0404C64.9096 28.0636 65.0503 28.0869 65.1909 28.1102C65.3433 28.1218 65.5543 28.1392 65.8239 28.1625C65.9293 28.2672 66.0173 28.3951 66.0876 28.5463C66.1696 28.6859 66.2224 28.8313 66.2458 28.9825C66.2692 29.1221 66.2751 29.2616 66.2634 29.4012C66.2517 29.5292 66.2106 29.6338 66.1403 29.7153C66.152 29.7502 66.1755 29.7676 66.2106 29.7676C66.2575 29.756 66.3044 29.756 66.3513 29.7676C66.281 29.8141 66.2224 29.8723 66.1755 29.9421C66.1286 30.0119 66.0817 30.0816 66.0348 30.1514C65.988 30.2212 65.9352 30.2794 65.8766 30.3259C65.818 30.3841 65.736 30.419 65.6305 30.4306C65.2671 30.5702 64.81 30.576 64.2591 30.448C63.7083 30.3317 63.0109 30.1107 62.167 29.7851C61.745 29.6222 61.3993 29.4826 61.1297 29.3663C60.8718 29.2384 60.6433 29.1163 60.444 28.9999C60.2565 28.872 60.0807 28.7382 59.9166 28.5987C59.7642 28.4591 59.5767 28.2904 59.354 28.0927ZM61.8681 22.1084C61.7392 22.2945 61.5927 22.4632 61.4286 22.6144C61.2762 22.7656 61.1238 22.9226 60.9715 23.0855C60.8308 23.2367 60.7019 23.4111 60.5847 23.6089C60.4675 23.795 60.3854 24.016 60.3385 24.2718C60.7488 24.2253 61.1766 24.1148 61.622 23.9404C62.0674 23.7543 62.4893 23.5798 62.8878 23.4169C62.8409 23.0564 62.712 22.7656 62.501 22.5446C62.3018 22.3236 62.0908 22.1782 61.8681 22.1084Z" fill="#242424"/>
<path d="M76.0737 20.0846C76.0854 20.166 76.0854 20.23 76.0737 20.2765C76.0737 20.3114 76.0678 20.3463 76.0561 20.3812C76.0561 20.4161 76.0561 20.4568 76.0561 20.5033C76.0561 20.5382 76.0678 20.5964 76.0913 20.6778C75.8451 21.0733 75.558 21.3466 75.2298 21.4978C74.9133 21.6374 74.5676 21.742 74.1925 21.8118C73.8174 21.87 73.4306 21.934 73.0321 22.0038C72.6453 22.0735 72.2586 22.2247 71.8718 22.4574C71.7194 22.3992 71.5788 22.3992 71.4498 22.4574C71.3326 22.5155 71.1568 22.533 70.9224 22.5097C70.8521 22.5795 70.7642 22.6318 70.6587 22.6667C70.5532 22.69 70.4477 22.7191 70.3422 22.754C70.3891 22.8586 70.4067 22.9691 70.395 23.0855C70.395 23.1901 70.4125 23.2774 70.4477 23.3472C70.8579 23.3821 71.3092 23.3762 71.8015 23.3297C72.3055 23.2832 72.7977 23.2541 73.2783 23.2425C73.29 23.3006 73.2841 23.3413 73.2607 23.3646C73.2373 23.3762 73.2314 23.4053 73.2431 23.4518C73.3252 23.51 73.4072 23.5856 73.4892 23.6787C73.5713 23.7601 73.6533 23.8415 73.7354 23.9229C73.8174 24.0043 73.8995 24.0741 73.9815 24.1323C74.0753 24.1788 74.1808 24.1962 74.298 24.1846C74.3449 24.2777 74.3742 24.3823 74.3859 24.4987C74.4093 24.6033 74.3976 24.7138 74.3507 24.8301C74.1632 24.9581 73.9757 25.0918 73.7881 25.2314C73.6006 25.3594 73.4013 25.4757 73.1904 25.5804C72.9911 25.685 72.7743 25.7723 72.5399 25.8421C72.3172 25.9002 72.0652 25.9235 71.7839 25.9118C71.7253 25.9118 71.6784 25.9118 71.6432 25.9118C71.6198 25.9118 71.5846 25.8944 71.5377 25.8595C71.444 25.9177 71.3092 25.9351 71.1334 25.9118C70.9693 25.8886 70.8403 25.906 70.7466 25.9642C70.6177 25.906 70.4594 25.8828 70.2719 25.8944C70.0961 25.8944 69.9379 25.8711 69.7972 25.8246C69.6097 26.0689 69.4397 26.3306 69.2873 26.6097C69.135 26.8889 69.0002 27.1855 68.883 27.4995C69.2815 27.5577 69.6097 27.5809 69.8675 27.5693C70.1371 27.5577 70.3891 27.5402 70.6235 27.517C70.8579 27.4821 71.0982 27.453 71.3443 27.4297C71.5905 27.3948 71.9011 27.3832 72.2761 27.3948C72.5106 27.2669 72.786 27.1855 73.1025 27.1506C73.4306 27.1041 73.7295 27.0343 73.9991 26.9412C74.0929 26.9761 74.1749 27.0401 74.2452 27.1331C74.3156 27.2145 74.38 27.296 74.4386 27.3774C74.5089 27.4472 74.5793 27.5111 74.6496 27.5693C74.7199 27.6275 74.8078 27.6507 74.9133 27.6391C74.9602 27.6856 74.9895 27.7438 75.0012 27.8136C75.0247 27.8717 75.0423 27.9299 75.054 27.988C75.0657 28.0462 75.0833 28.0985 75.1067 28.145C75.1419 28.1799 75.1946 28.1916 75.2649 28.1799C75.0891 28.5638 74.884 28.8604 74.6496 29.0697C74.4269 29.2675 74.1691 29.4187 73.876 29.5233C73.583 29.628 73.2548 29.7094 72.8915 29.7676C72.5399 29.8258 72.1472 29.8955 71.7135 29.977C71.6081 30.0002 71.5202 29.9944 71.4498 29.9595C71.3795 29.9363 71.2975 29.9246 71.2037 29.9246C70.9341 29.9828 70.6118 30.0351 70.2367 30.0816C69.8617 30.1282 69.4807 30.1456 69.094 30.134C68.7072 30.1224 68.338 30.07 67.9863 29.977C67.6347 29.8955 67.3476 29.7443 67.1249 29.5233C67.0311 29.4419 66.9666 29.3489 66.9315 29.2442C66.908 29.1279 66.8318 29.0407 66.7029 28.9825C66.6912 28.8313 66.6678 28.6626 66.6326 28.4765C66.5974 28.2904 66.5623 28.0985 66.5271 27.9008C66.4919 27.6914 66.4626 27.4879 66.4392 27.2902C66.4275 27.0924 66.4392 26.9121 66.4744 26.7493C66.5095 26.5748 66.5798 26.4178 66.6853 26.2782C66.8025 26.1387 66.8436 25.9875 66.8084 25.8246C66.867 25.813 66.9022 25.7839 66.9139 25.7374C66.9256 25.6792 66.9725 25.656 67.0545 25.6676C67.1249 25.4582 67.201 25.2605 67.2831 25.0744C67.3651 24.8883 67.4472 24.708 67.5292 24.5335C67.623 24.3591 67.7109 24.1846 67.793 24.0101C67.8867 23.824 67.9746 23.6205 68.0567 23.3995C67.8926 23.2483 67.7695 23.0855 67.6875 22.911C67.6171 22.7249 67.5644 22.5446 67.5292 22.3701C67.4941 22.184 67.4648 21.9979 67.4413 21.8118C67.4179 21.6141 67.3769 21.4164 67.3183 21.2186C67.4355 21.0442 67.5761 20.9046 67.7402 20.7999C67.916 20.6836 68.1036 20.5906 68.3028 20.5208C68.5021 20.451 68.7189 20.3928 68.9533 20.3463C69.1877 20.2998 69.4339 20.2474 69.6917 20.1893C70.1605 20.0381 70.5766 19.9218 70.94 19.8403C71.315 19.7589 71.6784 19.695 72.03 19.6484C72.3934 19.5903 72.7684 19.5379 73.1552 19.4914C73.542 19.4449 73.9815 19.3751 74.4738 19.282C74.5793 19.3867 74.6789 19.4391 74.7727 19.4391C74.8196 19.3344 74.8723 19.3053 74.9309 19.3518C75.0012 19.3867 75.0305 19.3518 75.0188 19.2471C75.136 19.4449 75.2825 19.6135 75.4583 19.7531C75.6459 19.8811 75.851 19.9915 76.0737 20.0846Z" fill="#242424"/>
<path d="M75.933 22.0561C76.0151 21.8118 76.144 21.6025 76.3198 21.428C76.5073 21.2535 76.7066 21.1081 76.9176 20.9918C77.1403 20.8639 77.3688 20.7592 77.6032 20.6778C77.8377 20.5964 78.0603 20.5266 78.2713 20.4684C78.7402 20.2707 79.2383 20.0846 79.7657 19.9101C80.3049 19.724 80.8499 19.5612 81.4008 19.4216C81.9634 19.282 82.5377 19.1948 83.1237 19.1599C83.7098 19.1134 84.3251 19.1832 84.9697 19.3693C85.0049 19.4856 85.0576 19.5961 85.128 19.7008C85.1983 19.8054 85.2686 19.9101 85.3389 20.0148C85.421 20.1195 85.4913 20.2242 85.5499 20.3289C85.6085 20.4219 85.6437 20.5208 85.6554 20.6254C85.7726 20.7301 85.8664 20.8464 85.9367 20.9744C86.007 21.0907 86.0188 21.2477 85.9719 21.4455C85.8547 21.5385 85.7374 21.6257 85.6202 21.7072C85.5148 21.7769 85.3976 21.8409 85.2686 21.8991C84.835 21.7944 84.3954 21.7595 83.95 21.7944C83.5046 21.8293 83.1061 21.8584 82.7545 21.8816C82.649 21.7769 82.5201 21.7246 82.3677 21.7246C82.2271 21.7246 82.0747 21.7479 81.9106 21.7944C81.7582 21.8409 81.6 21.8874 81.4359 21.934C81.2836 21.9805 81.137 21.9921 80.9964 21.9689C80.8792 22.0619 80.7327 22.1259 80.5569 22.1608C80.3928 22.184 80.2111 22.2073 80.0119 22.2306C80.0001 22.2887 80.0119 22.3294 80.047 22.3527C80.0822 22.3643 80.088 22.3992 80.0646 22.4574C80.1349 22.5388 80.2228 22.5969 80.3283 22.6318C80.4455 22.6667 80.5627 22.7016 80.6799 22.7365C80.8089 22.7714 80.9202 22.8179 81.014 22.8761C81.1077 22.9226 81.1722 23.004 81.2074 23.1204C81.3832 23.1204 81.5356 23.1611 81.6645 23.2425C81.7934 23.3239 81.8989 23.4228 81.9809 23.5391C82.063 23.6554 82.1216 23.7833 82.1568 23.9229C82.2036 24.0509 82.2271 24.1672 82.2271 24.2718C82.2622 24.3649 82.3033 24.4056 82.3502 24.394C82.397 24.3823 82.4498 24.4056 82.5084 24.4638C82.5435 24.615 82.6314 24.772 82.7721 24.9348C82.9128 25.086 83.0241 25.2547 83.1061 25.4408C83.1296 25.7316 83.1472 25.9933 83.1589 26.2259C83.1706 26.4469 83.1296 26.6737 83.0358 26.9063C82.86 27.3367 82.6139 27.7205 82.2974 28.0578C81.9927 28.3951 81.641 28.6975 81.2425 28.965C80.8558 29.2209 80.4397 29.4419 79.9943 29.628C79.5489 29.8141 79.1152 29.9712 78.6933 30.0991C78.6464 30.0875 78.5995 30.0875 78.5526 30.0991C78.5057 30.1107 78.494 30.0816 78.5175 30.0119C78.4237 30.0933 78.3182 30.1456 78.201 30.1689C78.0955 30.1921 77.9783 30.198 77.8494 30.1863C77.7204 30.1863 77.5857 30.1805 77.445 30.1689C77.3161 30.1573 77.193 30.1631 77.0758 30.1863C76.9938 30.1049 76.9176 30.0235 76.8472 29.9421C76.7886 29.8723 76.7418 29.7792 76.7066 29.6629C76.648 29.6629 76.6187 29.6338 76.6187 29.5757C76.6304 29.5175 76.6128 29.4885 76.5659 29.4885C76.6363 29.3721 76.6656 29.3082 76.6539 29.2965C76.6539 29.2733 76.6363 29.2558 76.6011 29.2442C76.5777 29.2326 76.5542 29.2209 76.5308 29.2093C76.5073 29.186 76.5015 29.157 76.5132 29.1221C76.5601 29.029 76.5777 28.9243 76.5659 28.808C76.5542 28.6801 76.5425 28.5521 76.5308 28.4242C76.5191 28.2963 76.5249 28.1741 76.5484 28.0578C76.5835 27.9415 76.6714 27.8485 76.8121 27.7787C77.2106 27.8252 77.5857 27.8136 77.9373 27.7438C78.3006 27.6624 78.6405 27.5519 78.957 27.4123C79.2734 27.2727 79.5723 27.1215 79.8536 26.9587C80.1466 26.7958 80.4338 26.6504 80.7151 26.5225C80.7503 26.4178 80.7971 26.3306 80.8558 26.2608C80.9261 26.191 80.9964 26.127 81.0667 26.0689C81.137 26.0107 81.2015 25.9467 81.2601 25.877C81.3187 25.8072 81.3597 25.7199 81.3832 25.6153C81.3949 25.5338 81.3715 25.4873 81.3129 25.4757C81.266 25.4524 81.2425 25.4059 81.2425 25.3361L81.0491 25.2838C80.8264 25.1558 80.5745 25.0511 80.2932 24.9697C80.0119 24.8767 79.7716 24.7778 79.5723 24.6731C79.4434 24.7429 79.3203 24.7604 79.2031 24.7255C79.0976 24.6906 78.957 24.6557 78.7812 24.6208C78.3827 24.5975 77.9959 24.5568 77.6208 24.4987C77.2575 24.4405 76.9059 24.3358 76.5659 24.1846C76.5425 24.1265 76.5132 24.0741 76.478 24.0276C76.4429 23.9811 76.3784 23.9694 76.2847 23.9927C76.2143 23.8996 76.144 23.8124 76.0737 23.731C76.0033 23.6379 75.9389 23.5391 75.8803 23.4344C75.9037 23.2948 75.9213 23.1785 75.933 23.0855C75.9447 22.9808 75.9096 22.8819 75.8275 22.7889C75.8744 22.6377 75.9096 22.5155 75.933 22.4225C75.9565 22.3294 75.9565 22.2073 75.933 22.0561Z" fill="#242424"/>
<defs>
<linearGradient id="paint0_linear" x1="105.475" y1="-17.2381" x2="53.0891" y2="31.5483" gradientUnits="userSpaceOnUse">
<stop stop-color="white"/>
<stop offset="0.901042" stop-color="white" stop-opacity="0"/>
</linearGradient>
</defs>
</svg>
