<svg width="181" height="37" viewBox="0 0 181 37" fill="none" xmlns="http://www.w3.org/2000/svg">
<g filter="url(#filter0_d)">
<path d="M4.08594 23.6602L4.54297 23.3086L4.57812 22.5703C5.16406 21.1406 5.76172 19.7695 6.37109 18.457C7.00391 17.1445 7.66016 15.7969 8.33984 14.4141C8.55078 13.9688 8.76172 13.5234 8.97266 13.0781C9.20703 12.6328 9.42969 12.1758 9.64062 11.707C9.61719 11.6133 9.60547 11.5195 9.60547 11.4258C9.60547 11.3086 9.62891 11.1797 9.67578 11.0391C10.0039 10.5703 10.2617 10.1484 10.4492 9.77344C10.6602 9.39844 10.8594 9.01172 11.0469 8.61328C11.2578 8.14453 11.4805 7.67578 11.7148 7.20703C11.9727 6.73828 12.2891 6.28125 12.6641 5.83594L12.9102 5.48438L13.2969 5.51953C13.3906 5.47266 13.4844 5.4375 13.5781 5.41406C13.6953 5.36719 13.8359 5.34375 14 5.34375L14.6328 5.44922C15.4062 5.09766 16.0859 4.59375 16.6719 3.9375C17.2812 3.25781 17.8906 2.44922 18.5 1.51172L18.9219 0.914062L19.4844 1.26562C19.6016 1.33594 19.7891 1.40625 20.0469 1.47656C20.3047 1.54688 20.5742 1.62891 20.8555 1.72266C21.3477 1.83984 21.8281 1.98047 22.2969 2.14453C22.7656 2.28516 23.1289 2.48437 23.3867 2.74219L23.5625 3.05859C23.6094 3.31641 23.6445 3.55078 23.668 3.76172C23.7148 3.97266 23.7617 4.18359 23.8086 4.39453C23.9023 4.88672 23.9844 5.37891 24.0547 5.87109C24.125 6.33984 24.1719 6.86719 24.1953 7.45312C24.3125 7.92188 24.418 8.40234 24.5117 8.89453C24.6289 9.36328 24.7344 9.83203 24.8281 10.3008C24.9453 10.9805 25.0742 11.6367 25.2148 12.2695C25.3555 12.8789 25.543 13.4648 25.7773 14.0273C26.0117 14.0273 26.1523 14.0391 26.1992 14.0625C26.4805 13.9453 26.8086 13.875 27.1836 13.8516L27.6406 13.8164L27.7812 14.2383C27.8281 14.3086 27.8867 14.3789 27.957 14.4492C28.0273 14.5195 28.1094 14.5898 28.2031 14.6602C28.5781 14.6836 28.8477 14.7656 29.0117 14.9062C29.1992 15.0234 29.3516 15.1406 29.4688 15.2578C29.5156 15.3047 29.5742 15.3633 29.6445 15.4336C29.7148 15.4805 29.7734 15.5156 29.8203 15.5391L30.4531 15.7852L30.1016 16.4531C29.8438 16.9453 29.4453 17.4258 28.9062 17.8945C28.3906 18.3633 27.8047 18.75 27.1484 19.0547C27.1953 19.2188 27.2188 19.3711 27.2188 19.5117C27.2422 19.6523 27.2773 19.8164 27.3242 20.0039C27.418 20.4727 27.4883 20.9648 27.5352 21.4805C27.6055 21.9727 27.6055 22.4883 27.5352 23.0273C27.3008 23.6367 27.0195 24.1875 26.6914 24.6797C26.3867 25.1484 26.0117 25.582 25.5664 25.9805C25.1445 26.3555 24.6641 26.6719 24.125 26.9297C23.5859 27.1641 23.0234 27.293 22.4375 27.3164C22.1094 27.2461 21.8633 27.1641 21.6992 27.0703C21.5586 26.9766 21.4297 26.8828 21.3125 26.7891C21.125 26.6484 20.9727 26.5547 20.8555 26.5078L20.3984 26.2969L20.5391 25.7695C20.6094 25.582 20.5977 25.418 20.5039 25.2773C20.4336 25.1367 20.2695 24.9492 20.0117 24.7148C19.918 24.6445 19.8359 24.5742 19.7656 24.5039C19.6953 24.4102 19.6133 24.3164 19.5195 24.2227L18.8164 23.4141L19.9766 23.0977C20.6797 22.9102 21.1484 22.6758 21.3828 22.3945C21.6172 22.0898 21.7109 21.5625 21.6641 20.8125C21.0781 20.6953 20.5977 20.6836 20.2227 20.7773C19.8477 20.8477 19.4727 20.9297 19.0977 21.0234C18.5586 21.1641 18.0312 21.293 17.5156 21.4102C17 21.5039 16.4375 21.5508 15.8281 21.5508C15.4297 21.5508 15.0078 21.5156 14.5625 21.4453L14.1758 21.4102L14.0703 21.0234C14.0703 20.9766 14.0352 20.9297 13.9648 20.8828C13.918 20.8125 13.8711 20.7539 13.8242 20.707C13.707 20.5664 13.5664 20.3789 13.4023 20.1445C13.2383 19.9102 13.2031 19.6172 13.2969 19.2656C13.1328 19.0078 13.0391 18.7383 13.0156 18.457C12.9219 18.6445 12.8398 18.832 12.7695 19.0195C12.7227 19.1836 12.6758 19.3477 12.6289 19.5117L12.4883 19.9688L12.0312 20.0391C11.9844 20.0859 11.9375 20.1562 11.8906 20.25C11.8672 20.3438 11.8672 20.4141 11.8906 20.4609L12.0312 20.8477L11.6797 21.1641C11.6328 21.2344 11.5742 21.293 11.5039 21.3398C11.4336 21.3867 11.375 21.4336 11.3281 21.4805C11.2812 21.7383 11.2109 21.9844 11.1172 22.2188C11.0469 22.4531 10.9648 22.6875 10.8711 22.9219C10.7539 23.2969 10.6367 23.6602 10.5195 24.0117C10.4258 24.3633 10.3789 24.7148 10.3789 25.0664L10.2383 25.5234C10.1211 25.7109 9.96875 25.8516 9.78125 25.9453C9.61719 26.0391 9.45312 26.1211 9.28906 26.1914C9.05469 26.2852 8.89062 26.3789 8.79688 26.4727L8.69141 26.9297L8.16406 27C7.85938 27.0703 7.63672 27.1172 7.49609 27.1406C7.37891 27.1641 7.23828 27.1758 7.07422 27.1758L6.61719 27.1406C6.33594 26.8594 6.10156 26.6484 5.91406 26.5078C5.75 26.3438 5.55078 26.2031 5.31641 26.0859L5.10547 25.8047C5.01172 25.6172 4.95312 25.4531 4.92969 25.3125C4.90625 25.1484 4.87109 24.9844 4.82422 24.8203C4.77734 24.5156 4.70703 24.3047 4.61328 24.1875L4.08594 23.6602ZM15.3008 14.5195C14.9727 14.9883 14.6562 15.4805 14.3516 15.9961C14.5156 15.9727 14.668 15.9609 14.8086 15.9609C14.9727 15.9609 15.1367 15.9492 15.3008 15.9258C16.1211 15.8789 16.8828 15.8203 17.5859 15.75C18.2891 15.6797 19.0508 15.5625 19.8711 15.3984C19.6836 14.5312 19.4727 13.6523 19.2383 12.7617C19.0273 11.8477 18.793 10.9336 18.5352 10.0195L18.3594 10.3711C17.7734 11.0039 17.2109 11.6836 16.6719 12.4102C16.1328 13.1367 15.6875 13.8281 15.3359 14.4844L15.3008 14.5195ZM54.6055 26.3672C54.3711 26.4844 54.1484 26.5898 53.9375 26.6836C53.75 26.7773 53.5273 26.8242 53.2695 26.8242C52.3555 26.1445 51.875 24.9609 51.8281 23.2734C51.8047 21.5859 52.168 19.4414 52.918 16.8398C53.0352 16.7695 53.0938 16.6289 53.0938 16.418L52.7773 16.0664C52.6836 16.0664 52.5898 16.0781 52.4961 16.1016C52.4258 16.125 52.3672 16.207 52.3203 16.3477C51.7109 16.793 51.043 17.2617 50.3164 17.7539C49.5898 18.2227 48.8281 18.668 48.0312 19.0898C47.2578 19.4883 46.4609 19.8164 45.6406 20.0742C44.8438 20.332 44.0586 20.4609 43.2852 20.4609C41.3164 20.4609 39.8398 19.4648 38.8555 17.4727L38.5742 16.9453L38.293 17.4023C38.2227 17.4961 38.1172 17.6953 37.9766 18C37.8359 18.2812 37.6953 18.6094 37.5547 18.9844C37.4141 19.3594 37.2852 19.7461 37.168 20.1445C37.0742 20.5195 37.0391 20.8477 37.0625 21.1289C36.8516 21.3398 36.6289 21.5859 36.3945 21.8672C36.1602 22.1484 35.9844 22.4648 35.8672 22.8164C35.8203 23.0039 35.8438 23.1797 35.9375 23.3438C35.8906 23.5547 35.7852 23.7188 35.6211 23.8359C35.5273 23.9531 35.4219 24.0703 35.3047 24.1875C35.2109 24.2812 35.1289 24.3867 35.0586 24.5039C35.0117 24.6211 34.9766 24.7383 34.9531 24.8555C34.9531 24.9727 34.9414 25.0898 34.918 25.207C34.918 25.3711 34.8945 25.5234 34.8477 25.6641C34.4492 26.4844 34.1328 27.0117 33.8984 27.2461C33.6641 27.5039 33.3477 27.6328 32.9492 27.6328C32.7617 27.6328 32.457 27.5977 32.0352 27.5273C31.7305 27.1992 31.4492 26.7539 31.1914 26.1914C30.957 25.6055 30.7695 24.9844 30.6289 24.3281C30.5117 23.6719 30.4531 23.0156 30.4531 22.3594C30.4766 21.6797 30.5938 21.0938 30.8047 20.6016C30.8047 20.5781 30.8984 20.3438 31.0859 19.8984C31.2734 19.4531 31.5078 18.8789 31.7891 18.1758C32.0938 17.4727 32.4336 16.6992 32.8086 15.8555C33.1836 14.9883 33.5586 14.1562 33.9336 13.3594C34.3086 12.5391 34.6602 11.7891 34.9883 11.1094C35.3398 10.4297 35.6328 9.91406 35.8672 9.5625C36.0547 9.28125 36.2188 9.02344 36.3594 8.78906C36.5234 8.53125 36.6758 8.28516 36.8164 8.05078C37.2383 7.32422 37.6367 6.72656 38.0117 6.25781C38.4102 5.76562 38.9844 5.37891 39.7344 5.09766C40.25 5.30859 40.625 5.55469 40.8594 5.83594L40.9297 6.22266C41.0234 6.45703 41.1641 6.57422 41.3516 6.57422C41.6094 6.64453 41.8203 6.71484 41.9844 6.78516C42.1719 6.83203 42.3711 6.87891 42.582 6.92578C42.7461 7.11328 42.8984 7.33594 43.0391 7.59375C43.2266 7.875 43.4023 8.15625 43.5664 8.4375C43.7539 8.69531 43.8945 8.96484 43.9883 9.24609C44.1055 9.50391 44.1641 9.77344 44.1641 10.0547C44.1875 10.3359 44.1406 10.6289 44.0234 10.9336L44.0586 11.2852C44.1758 11.4961 44.1992 11.7891 44.1289 12.1641C44.1055 12.3281 44.0938 12.5039 44.0938 12.6914C44.0938 12.8555 44.1172 13.043 44.1641 13.2539C44.5859 13.582 44.9609 13.7461 45.2891 13.7461C45.6641 13.7461 46.0039 13.6641 46.3086 13.5C46.6367 13.3125 46.9414 13.125 47.2227 12.9375C47.4102 12.7969 47.5977 12.6797 47.7852 12.5859C47.9727 12.4688 48.1602 12.3984 48.3477 12.375C48.7695 11.9766 49.1445 11.625 49.4727 11.3203C49.8242 11.0156 50.1875 10.7109 50.5625 10.4062C51.2656 9.84375 51.9453 9.23438 52.6016 8.57812C53.2578 7.92188 53.7852 7.10156 54.1836 6.11719C54.418 5.97656 54.6641 5.90625 54.9219 5.90625C55.1797 5.90625 55.4492 5.96484 55.7305 6.08203C56.0117 6.19922 56.2812 6.31641 56.5391 6.43359C56.6094 6.48047 56.668 6.51563 56.7148 6.53906C56.7852 6.5625 56.8438 6.58594 56.8906 6.60938C56.8906 6.84375 56.9844 7.04297 57.1719 7.20703C57.2656 7.27734 57.3242 7.32422 57.3477 7.34766C57.3711 7.37109 57.4062 7.39453 57.4531 7.41797C57.8047 7.60547 58.0273 7.79297 58.1211 7.98047C58.2852 8.51953 58.5781 8.92969 59 9.21094C58.9531 9.44531 58.9531 9.66797 59 9.87891C59.0703 10.0664 59.1523 10.2656 59.2461 10.4766C59.2695 10.5469 59.293 10.6172 59.3164 10.6875C59.3398 10.7578 59.375 10.8398 59.4219 10.9336L58.7539 10.8633L58.8594 11.5312C58.9062 11.8594 58.8711 12.2227 58.7539 12.6211C58.6602 13.0195 58.543 13.3359 58.4023 13.5703C58.4258 14.1797 58.4375 14.6602 58.4375 15.0117C58.4609 15.3398 58.4492 15.6562 58.4023 15.9609C58.3555 16.2422 58.2852 16.5117 58.1914 16.7695C58.1211 17.0273 58.0156 17.3086 57.875 17.6133C57.9688 19.1133 57.793 20.4844 57.3477 21.7266C56.9258 22.9453 56.4805 24.0938 56.0117 25.1719C55.9648 25.2891 55.9062 25.4062 55.8359 25.5234C55.7891 25.6406 55.7422 25.7578 55.6953 25.875C55.4844 25.9453 55.2969 26.0273 55.1328 26.1211C54.9688 26.1914 54.793 26.2734 54.6055 26.3672ZM79.2148 7.20703C79.2383 7.37109 79.2383 7.5 79.2148 7.59375C79.2148 7.66406 79.2031 7.73438 79.1797 7.80469C79.1797 7.875 79.1797 7.95703 79.1797 8.05078C79.1797 8.12109 79.2031 8.23828 79.25 8.40234C78.7578 9.19922 78.1836 9.75 77.5273 10.0547C76.8945 10.3359 76.2031 10.5469 75.4531 10.6875C74.7031 10.8047 73.9297 10.9336 73.1328 11.0742C72.3594 11.2148 71.5859 11.5195 70.8125 11.9883C70.5078 11.8711 70.2266 11.8711 69.9688 11.9883C69.7344 12.1055 69.3828 12.1406 68.9141 12.0938C68.7734 12.2344 68.5977 12.3398 68.3867 12.4102C68.1758 12.457 67.9648 12.5156 67.7539 12.5859C67.8477 12.7969 67.8828 13.0195 67.8594 13.2539C67.8594 13.4648 67.8945 13.6406 67.9648 13.7812C68.7852 13.8516 69.6875 13.8398 70.6719 13.7461C71.6797 13.6523 72.6641 13.5938 73.625 13.5703C73.6484 13.6875 73.6367 13.7695 73.5898 13.8164C73.543 13.8398 73.5312 13.8984 73.5547 13.9922C73.7188 14.1094 73.8828 14.2617 74.0469 14.4492C74.2109 14.6133 74.375 14.7773 74.5391 14.9414C74.7031 15.1055 74.8672 15.2461 75.0312 15.3633C75.2188 15.457 75.4297 15.4922 75.6641 15.4688C75.7578 15.6562 75.8164 15.8672 75.8398 16.1016C75.8867 16.3125 75.8633 16.5352 75.7695 16.7695C75.3945 17.0273 75.0195 17.2969 74.6445 17.5781C74.2695 17.8359 73.8711 18.0703 73.4492 18.2812C73.0508 18.4922 72.6172 18.668 72.1484 18.8086C71.7031 18.9258 71.1992 18.9727 70.6367 18.9492C70.5195 18.9492 70.4258 18.9492 70.3555 18.9492C70.3086 18.9492 70.2383 18.9141 70.1445 18.8438C69.957 18.9609 69.6875 18.9961 69.3359 18.9492C69.0078 18.9023 68.75 18.9375 68.5625 19.0547C68.3047 18.9375 67.9883 18.8906 67.6133 18.9141C67.2617 18.9141 66.9453 18.8672 66.6641 18.7734C66.2891 19.2656 65.9492 19.793 65.6445 20.3555C65.3398 20.918 65.0703 21.5156 64.8359 22.1484C65.6328 22.2656 66.2891 22.3125 66.8047 22.2891C67.3438 22.2656 67.8477 22.2305 68.3164 22.1836C68.7852 22.1133 69.2656 22.0547 69.7578 22.0078C70.25 21.9375 70.8711 21.9141 71.6211 21.9375C72.0898 21.6797 72.6406 21.5156 73.2734 21.4453C73.9297 21.3516 74.5273 21.2109 75.0664 21.0234C75.2539 21.0938 75.418 21.2227 75.5586 21.4102C75.6992 21.5742 75.8281 21.7383 75.9453 21.9023C76.0859 22.043 76.2266 22.1719 76.3672 22.2891C76.5078 22.4062 76.6836 22.4531 76.8945 22.4297C76.9883 22.5234 77.0469 22.6406 77.0703 22.7812C77.1172 22.8984 77.1523 23.0156 77.1758 23.1328C77.1992 23.25 77.2344 23.3555 77.2812 23.4492C77.3516 23.5195 77.457 23.543 77.5977 23.5195C77.2461 24.293 76.8359 24.8906 76.3672 25.3125C75.9219 25.7109 75.4062 26.0156 74.8203 26.2266C74.2344 26.4375 73.5781 26.6016 72.8516 26.7188C72.1484 26.8359 71.3633 26.9766 70.4961 27.1406C70.2852 27.1875 70.1094 27.1758 69.9688 27.1055C69.8281 27.0586 69.6641 27.0352 69.4766 27.0352C68.9375 27.1523 68.293 27.2578 67.543 27.3516C66.793 27.4453 66.0312 27.4805 65.2578 27.457C64.4844 27.4336 63.7461 27.3281 63.043 27.1406C62.3398 26.9766 61.7656 26.6719 61.3203 26.2266C61.1328 26.0625 61.0039 25.875 60.9336 25.6641C60.8867 25.4297 60.7344 25.2539 60.4766 25.1367C60.4531 24.832 60.4062 24.4922 60.3359 24.1172C60.2656 23.7422 60.1953 23.3555 60.125 22.957C60.0547 22.5352 59.9961 22.125 59.9492 21.7266C59.9258 21.3281 59.9492 20.9648 60.0195 20.6367C60.0898 20.2852 60.2305 19.9688 60.4414 19.6875C60.6758 19.4062 60.7578 19.1016 60.6875 18.7734C60.8047 18.75 60.875 18.6914 60.8984 18.5977C60.9219 18.4805 61.0156 18.4336 61.1797 18.457C61.3203 18.0352 61.4727 17.6367 61.6367 17.2617C61.8008 16.8867 61.9648 16.5234 62.1289 16.1719C62.3164 15.8203 62.4922 15.4688 62.6562 15.1172C62.8438 14.7422 63.0195 14.332 63.1836 13.8867C62.8555 13.582 62.6094 13.2539 62.4453 12.9023C62.3047 12.5273 62.1992 12.1641 62.1289 11.8125C62.0586 11.4375 62 11.0625 61.9531 10.6875C61.9062 10.2891 61.8242 9.89062 61.707 9.49219C61.9414 9.14062 62.2227 8.85938 62.5508 8.64844C62.9023 8.41406 63.2773 8.22656 63.6758 8.08594C64.0742 7.94531 64.5078 7.82812 64.9766 7.73438C65.4453 7.64063 65.9375 7.53516 66.4531 7.41797C67.3906 7.11328 68.2227 6.87891 68.9492 6.71484C69.6992 6.55078 70.4258 6.42187 71.1289 6.32812C71.8555 6.21094 72.6055 6.10547 73.3789 6.01172C74.1523 5.91797 75.0312 5.77734 76.0156 5.58984C76.2266 5.80078 76.4258 5.90625 76.6133 5.90625C76.707 5.69531 76.8125 5.63672 76.9297 5.73047C77.0703 5.80078 77.1289 5.73047 77.1055 5.51953C77.3398 5.91797 77.6328 6.25781 77.9844 6.53906C78.3594 6.79688 78.7695 7.01953 79.2148 7.20703ZM85.5781 20.6016C85.3672 20.6484 85.2148 20.7773 85.1211 20.9883C85.0273 21.1758 84.9336 21.375 84.8398 21.5859C84.7695 21.7969 84.6875 21.9961 84.5938 22.1836C84.5234 22.3477 84.4062 22.4297 84.2422 22.4297C84.2188 22.6172 84.1484 22.7812 84.0312 22.9219C83.9375 23.0625 83.8438 23.2148 83.75 23.3789C83.6562 23.5195 83.5859 23.6836 83.5391 23.8711C83.4922 24.0352 83.5156 24.2344 83.6094 24.4688C83.4219 24.6094 83.3047 24.8086 83.2578 25.0664C83.2109 25.3242 83.1523 25.5703 83.082 25.8047C83.0352 26.0391 82.9414 26.2383 82.8008 26.4023C82.6602 26.5664 82.4023 26.6367 82.0273 26.6133C81.957 26.707 81.9453 26.7656 81.9922 26.7891C82.0391 26.8125 82.0742 26.8945 82.0977 27.0352C81.8398 26.9883 81.6406 27 81.5 27.0703C81.3828 27.1641 81.2305 27.2227 81.043 27.2461C80.5977 27.1055 80.2227 26.8594 79.918 26.5078C79.6367 26.1562 79.3789 25.7695 79.1445 25.3477C78.9336 24.9023 78.7344 24.457 78.5469 24.0117C78.3828 23.5664 78.2188 23.1797 78.0547 22.8516C78.125 22.5938 78.1367 22.3477 78.0898 22.1133C78.043 21.8555 77.9609 21.6445 77.8438 21.4805C78.9922 19.043 80.2461 16.4414 81.6055 13.6758C82.9648 10.9102 84.2539 8.17969 85.4727 5.48438C86.0117 5.69531 86.5391 5.94141 87.0547 6.22266C87.5938 6.48047 88.0742 6.78516 88.4961 7.13672C88.9414 7.48828 89.3164 7.89844 89.6211 8.36719C89.9258 8.8125 90.125 9.31641 90.2188 9.87891C90.1719 10.0195 90.1133 10.0781 90.043 10.0547C89.9961 10.0078 89.9492 10.0195 89.9023 10.0898C89.9961 10.207 90.043 10.2891 90.043 10.3359C90.0664 10.3828 90.0664 10.4297 90.043 10.4766C90.043 10.5234 90.043 10.5938 90.043 10.6875C90.043 10.7578 90.0781 10.8633 90.1484 11.0039C90.0547 10.9805 89.9844 10.9922 89.9375 11.0391C89.9141 11.0859 89.8438 11.0859 89.7266 11.0391C89.8203 11.2969 89.8438 11.5078 89.7969 11.6719C89.7734 11.8359 89.7266 11.9883 89.6562 12.1289C89.5859 12.2461 89.5273 12.3867 89.4805 12.5508C89.4336 12.6914 89.4453 12.8789 89.5156 13.1133C89.4453 13.1133 89.3867 13.1367 89.3398 13.1836C89.3164 13.207 89.293 13.2422 89.2695 13.2891C89.2461 13.3125 89.2109 13.3477 89.1641 13.3945C89.1406 13.418 89.0938 13.418 89.0234 13.3945C89.0938 13.9102 89.1172 14.4258 89.0938 14.9414C89.0703 15.457 89.0469 15.9844 89.0234 16.5234C89.0234 17.0391 89.0352 17.5898 89.0586 18.1758C89.082 18.7383 89.1641 19.3242 89.3047 19.9336C90.1484 19.4414 90.8164 18.8086 91.3086 18.0352C91.8242 17.2617 92.2344 16.3945 92.5391 15.4336C92.8672 14.4727 93.1133 13.4414 93.2773 12.3398C93.4414 11.2383 93.6172 10.1133 93.8047 8.96484C94.0156 8.75391 94.1797 8.49609 94.2969 8.19141C94.4141 7.88672 94.5195 7.57031 94.6133 7.24219C94.707 6.89062 94.8008 6.55078 94.8945 6.22266C94.9883 5.87109 95.1055 5.55469 95.2461 5.27344C95.5977 5.32031 95.8906 5.4375 96.125 5.625C96.3828 5.78906 96.6172 5.97656 96.8281 6.1875C97.0391 6.375 97.2617 6.5625 97.4961 6.75C97.7305 6.91406 98.0234 7.01953 98.375 7.06641C98.6562 7.46484 98.9141 7.85156 99.1484 8.22656C99.3828 8.60156 99.5352 9 99.6055 9.42188C99.4883 9.60938 99.3945 9.82031 99.3242 10.0547C99.2773 10.2891 99.2188 10.5234 99.1484 10.7578C99.0781 10.9922 98.9844 11.2148 98.8672 11.4258C98.75 11.6133 98.5859 11.7773 98.375 11.918C98.3047 12.5273 98.2109 13.0898 98.0938 13.6055C98 14.0977 97.8945 14.5898 97.7773 15.082C97.6836 15.5742 97.6016 16.0898 97.5312 16.6289C97.4609 17.1445 97.4375 17.7188 97.4609 18.3516C97.2734 18.8906 97.0742 19.4648 96.8633 20.0742C96.6523 20.6836 96.4883 21.2344 96.3711 21.7266C95.9961 22.0312 95.7031 22.3945 95.4922 22.8164C95.2812 23.2383 95.0586 23.6602 94.8242 24.082C94.7305 24.1758 94.6719 24.1992 94.6484 24.1523C94.625 24.1055 94.543 24.0703 94.4023 24.0469C94.4258 24.1406 94.4258 24.2109 94.4023 24.2578C94.3789 24.3047 94.3438 24.3516 94.2969 24.3984C94.2734 24.4219 94.25 24.4688 94.2266 24.5391C94.2266 24.6094 94.25 24.7031 94.2969 24.8203C93.9688 24.9609 93.6758 25.1602 93.418 25.418C93.1602 25.6758 92.8789 25.9102 92.5742 26.1211C92.293 26.332 91.9414 26.4727 91.5195 26.543C91.1211 26.6133 90.5938 26.5312 89.9375 26.2969C88.9766 25.5938 88.1211 24.7852 87.3711 23.8711C86.6445 22.957 86.0469 21.8672 85.5781 20.6016ZM118.309 7.20703C118.332 7.37109 118.332 7.5 118.309 7.59375C118.309 7.66406 118.297 7.73438 118.273 7.80469C118.273 7.875 118.273 7.95703 118.273 8.05078C118.273 8.12109 118.297 8.23828 118.344 8.40234C117.852 9.19922 117.277 9.75 116.621 10.0547C115.988 10.3359 115.297 10.5469 114.547 10.6875C113.797 10.8047 113.023 10.9336 112.227 11.0742C111.453 11.2148 110.68 11.5195 109.906 11.9883C109.602 11.8711 109.32 11.8711 109.062 11.9883C108.828 12.1055 108.477 12.1406 108.008 12.0938C107.867 12.2344 107.691 12.3398 107.48 12.4102C107.27 12.457 107.059 12.5156 106.848 12.5859C106.941 12.7969 106.977 13.0195 106.953 13.2539C106.953 13.4648 106.988 13.6406 107.059 13.7812C107.879 13.8516 108.781 13.8398 109.766 13.7461C110.773 13.6523 111.758 13.5938 112.719 13.5703C112.742 13.6875 112.73 13.7695 112.684 13.8164C112.637 13.8398 112.625 13.8984 112.648 13.9922C112.812 14.1094 112.977 14.2617 113.141 14.4492C113.305 14.6133 113.469 14.7773 113.633 14.9414C113.797 15.1055 113.961 15.2461 114.125 15.3633C114.312 15.457 114.523 15.4922 114.758 15.4688C114.852 15.6562 114.91 15.8672 114.934 16.1016C114.98 16.3125 114.957 16.5352 114.863 16.7695C114.488 17.0273 114.113 17.2969 113.738 17.5781C113.363 17.8359 112.965 18.0703 112.543 18.2812C112.145 18.4922 111.711 18.668 111.242 18.8086C110.797 18.9258 110.293 18.9727 109.73 18.9492C109.613 18.9492 109.52 18.9492 109.449 18.9492C109.402 18.9492 109.332 18.9141 109.238 18.8438C109.051 18.9609 108.781 18.9961 108.43 18.9492C108.102 18.9023 107.844 18.9375 107.656 19.0547C107.398 18.9375 107.082 18.8906 106.707 18.9141C106.355 18.9141 106.039 18.8672 105.758 18.7734C105.383 19.2656 105.043 19.793 104.738 20.3555C104.434 20.918 104.164 21.5156 103.93 22.1484C104.727 22.2656 105.383 22.3125 105.898 22.2891C106.438 22.2656 106.941 22.2305 107.41 22.1836C107.879 22.1133 108.359 22.0547 108.852 22.0078C109.344 21.9375 109.965 21.9141 110.715 21.9375C111.184 21.6797 111.734 21.5156 112.367 21.4453C113.023 21.3516 113.621 21.2109 114.16 21.0234C114.348 21.0938 114.512 21.2227 114.652 21.4102C114.793 21.5742 114.922 21.7383 115.039 21.9023C115.18 22.043 115.32 22.1719 115.461 22.2891C115.602 22.4062 115.777 22.4531 115.988 22.4297C116.082 22.5234 116.141 22.6406 116.164 22.7812C116.211 22.8984 116.246 23.0156 116.27 23.1328C116.293 23.25 116.328 23.3555 116.375 23.4492C116.445 23.5195 116.551 23.543 116.691 23.5195C116.34 24.293 115.93 24.8906 115.461 25.3125C115.016 25.7109 114.5 26.0156 113.914 26.2266C113.328 26.4375 112.672 26.6016 111.945 26.7188C111.242 26.8359 110.457 26.9766 109.59 27.1406C109.379 27.1875 109.203 27.1758 109.062 27.1055C108.922 27.0586 108.758 27.0352 108.57 27.0352C108.031 27.1523 107.387 27.2578 106.637 27.3516C105.887 27.4453 105.125 27.4805 104.352 27.457C103.578 27.4336 102.84 27.3281 102.137 27.1406C101.434 26.9766 100.859 26.6719 100.414 26.2266C100.227 26.0625 100.098 25.875 100.027 25.6641C99.9805 25.4297 99.8281 25.2539 99.5703 25.1367C99.5469 24.832 99.5 24.4922 99.4297 24.1172C99.3594 23.7422 99.2891 23.3555 99.2188 22.957C99.1484 22.5352 99.0898 22.125 99.043 21.7266C99.0195 21.3281 99.043 20.9648 99.1133 20.6367C99.1836 20.2852 99.3242 19.9688 99.5352 19.6875C99.7695 19.4062 99.8516 19.1016 99.7812 18.7734C99.8984 18.75 99.9688 18.6914 99.9922 18.5977C100.016 18.4805 100.109 18.4336 100.273 18.457C100.414 18.0352 100.566 17.6367 100.73 17.2617C100.895 16.8867 101.059 16.5234 101.223 16.1719C101.41 15.8203 101.586 15.4688 101.75 15.1172C101.938 14.7422 102.113 14.332 102.277 13.8867C101.949 13.582 101.703 13.2539 101.539 12.9023C101.398 12.5273 101.293 12.1641 101.223 11.8125C101.152 11.4375 101.094 11.0625 101.047 10.6875C101 10.2891 100.918 9.89062 100.801 9.49219C101.035 9.14062 101.316 8.85938 101.645 8.64844C101.996 8.41406 102.371 8.22656 102.77 8.08594C103.168 7.94531 103.602 7.82812 104.07 7.73438C104.539 7.64063 105.031 7.53516 105.547 7.41797C106.484 7.11328 107.316 6.87891 108.043 6.71484C108.793 6.55078 109.52 6.42187 110.223 6.32812C110.949 6.21094 111.699 6.10547 112.473 6.01172C113.246 5.91797 114.125 5.77734 115.109 5.58984C115.32 5.80078 115.52 5.90625 115.707 5.90625C115.801 5.69531 115.906 5.63672 116.023 5.73047C116.164 5.80078 116.223 5.73047 116.199 5.51953C116.434 5.91797 116.727 6.25781 117.078 6.53906C117.453 6.79688 117.863 7.01953 118.309 7.20703ZM122.773 23.3438C122.516 24.2812 122.281 24.9961 122.07 25.4883C121.883 25.957 121.59 26.4492 121.191 26.9648C120.887 26.918 120.676 26.9531 120.559 27.0703C120.441 27.1875 120.312 27.293 120.172 27.3867C119.961 27.4336 119.809 27.4336 119.715 27.3867C119.621 27.3398 119.539 27.2812 119.469 27.2109C119.398 27.1641 119.305 27.1055 119.188 27.0352C119.094 26.9883 118.941 26.9648 118.73 26.9648C118.684 26.7773 118.625 26.6016 118.555 26.4375C118.508 26.2734 118.355 26.2148 118.098 26.2617C118.145 26.0742 118.156 25.9219 118.133 25.8047C118.109 25.6641 118.074 25.5469 118.027 25.4531C118.004 25.3359 117.98 25.2305 117.957 25.1367C117.934 25.0195 117.945 24.8789 117.992 24.7148C117.875 24.7148 117.781 24.6328 117.711 24.4688C117.641 24.3047 117.559 24.1406 117.465 23.9766C117.535 23.5547 117.605 23.1562 117.676 22.7812C117.746 22.4062 117.828 22.0547 117.922 21.7266C118.039 21.3984 118.133 21.0703 118.203 20.7422C118.273 20.4141 118.238 20.0742 118.098 19.7227C118.191 19.793 118.262 19.7812 118.309 19.6875C118.355 19.5703 118.391 19.4297 118.414 19.2656C118.438 19.0781 118.449 18.9023 118.449 18.7383C118.449 18.5508 118.438 18.3984 118.414 18.2812C118.648 17.6719 118.836 17.0508 118.977 16.418C119.141 15.7617 119.281 15.1172 119.398 14.4844C119.539 13.8516 119.68 13.2305 119.82 12.6211C119.961 12.0117 120.148 11.4492 120.383 10.9336C120.641 10.8867 120.922 10.9219 121.227 11.0391C121.555 11.1328 121.754 11.2617 121.824 11.4258C122.434 10.957 122.973 10.3945 123.441 9.73828C123.91 9.05859 124.391 8.40234 124.883 7.76953C125.375 7.13672 125.914 6.57422 126.5 6.08203C127.109 5.58984 127.871 5.29687 128.785 5.20312C129.254 5.55469 129.77 5.91797 130.332 6.29297C130.918 6.64453 131.398 7.11328 131.773 7.69922C131.961 7.79297 132.113 7.89844 132.23 8.01562C132.371 8.10937 132.535 8.21484 132.723 8.33203V8.75391C133.004 9.01172 133.227 9.31641 133.391 9.66797C133.578 9.99609 133.742 10.3594 133.883 10.7578C134.023 11.1328 134.164 11.5195 134.305 11.918C134.445 12.293 134.609 12.6562 134.797 13.0078C134.75 13.125 134.727 13.2305 134.727 13.3242C134.727 13.3945 134.738 13.4766 134.762 13.5703C134.809 13.6641 134.844 13.7578 134.867 13.8516C134.891 13.9453 134.891 14.0742 134.867 14.2383C134.797 15.2695 134.457 16.1016 133.848 16.7344C133.262 17.3672 132.547 17.8945 131.703 18.3164C130.859 18.7148 129.957 19.0547 128.996 19.3359C128.035 19.6172 127.168 19.9219 126.395 20.25C126.395 20.3438 126.43 20.3906 126.5 20.3906C126.594 20.3906 126.629 20.4492 126.605 20.5664C127.168 20.918 127.613 21.1992 127.941 21.4102C128.27 21.6211 128.574 21.7969 128.855 21.9375C129.16 22.0781 129.477 22.207 129.805 22.3242C130.156 22.418 130.637 22.5352 131.246 22.6758C131.855 22.8164 132.324 22.9336 132.652 23.0273C133.004 23.0977 133.32 23.168 133.602 23.2383C133.883 23.2852 134.164 23.332 134.445 23.3789C134.75 23.4023 135.172 23.4375 135.711 23.4844C135.922 23.6953 136.098 23.9531 136.238 24.2578C136.402 24.5391 136.508 24.832 136.555 25.1367C136.602 25.418 136.613 25.6992 136.59 25.9805C136.566 26.2383 136.484 26.4492 136.344 26.6133C136.367 26.6836 136.414 26.7188 136.484 26.7188C136.578 26.6953 136.672 26.6953 136.766 26.7188C136.625 26.8125 136.508 26.9297 136.414 27.0703C136.32 27.2109 136.227 27.3516 136.133 27.4922C136.039 27.6328 135.934 27.75 135.816 27.8438C135.699 27.9609 135.535 28.0312 135.324 28.0547C134.598 28.3359 133.684 28.3477 132.582 28.0898C131.48 27.8555 130.086 27.4102 128.398 26.7539C127.555 26.4258 126.863 26.1445 126.324 25.9102C125.809 25.6523 125.352 25.4062 124.953 25.1719C124.578 24.9141 124.227 24.6445 123.898 24.3633C123.594 24.082 123.219 23.7422 122.773 23.3438ZM127.801 11.2852C127.543 11.6602 127.25 12 126.922 12.3047C126.617 12.6094 126.312 12.9258 126.008 13.2539C125.727 13.5586 125.469 13.9102 125.234 14.3086C125 14.6836 124.836 15.1289 124.742 15.6445C125.562 15.5508 126.418 15.3281 127.309 14.9766C128.199 14.6016 129.043 14.25 129.84 13.9219C129.746 13.1953 129.488 12.6094 129.066 12.1641C128.668 11.7188 128.246 11.4258 127.801 11.2852ZM156.207 7.20703C156.23 7.37109 156.23 7.5 156.207 7.59375C156.207 7.66406 156.195 7.73438 156.172 7.80469C156.172 7.875 156.172 7.95703 156.172 8.05078C156.172 8.12109 156.195 8.23828 156.242 8.40234C155.75 9.19922 155.176 9.75 154.52 10.0547C153.887 10.3359 153.195 10.5469 152.445 10.6875C151.695 10.8047 150.922 10.9336 150.125 11.0742C149.352 11.2148 148.578 11.5195 147.805 11.9883C147.5 11.8711 147.219 11.8711 146.961 11.9883C146.727 12.1055 146.375 12.1406 145.906 12.0938C145.766 12.2344 145.59 12.3398 145.379 12.4102C145.168 12.457 144.957 12.5156 144.746 12.5859C144.84 12.7969 144.875 13.0195 144.852 13.2539C144.852 13.4648 144.887 13.6406 144.957 13.7812C145.777 13.8516 146.68 13.8398 147.664 13.7461C148.672 13.6523 149.656 13.5938 150.617 13.5703C150.641 13.6875 150.629 13.7695 150.582 13.8164C150.535 13.8398 150.523 13.8984 150.547 13.9922C150.711 14.1094 150.875 14.2617 151.039 14.4492C151.203 14.6133 151.367 14.7773 151.531 14.9414C151.695 15.1055 151.859 15.2461 152.023 15.3633C152.211 15.457 152.422 15.4922 152.656 15.4688C152.75 15.6562 152.809 15.8672 152.832 16.1016C152.879 16.3125 152.855 16.5352 152.762 16.7695C152.387 17.0273 152.012 17.2969 151.637 17.5781C151.262 17.8359 150.863 18.0703 150.441 18.2812C150.043 18.4922 149.609 18.668 149.141 18.8086C148.695 18.9258 148.191 18.9727 147.629 18.9492C147.512 18.9492 147.418 18.9492 147.348 18.9492C147.301 18.9492 147.23 18.9141 147.137 18.8438C146.949 18.9609 146.68 18.9961 146.328 18.9492C146 18.9023 145.742 18.9375 145.555 19.0547C145.297 18.9375 144.98 18.8906 144.605 18.9141C144.254 18.9141 143.938 18.8672 143.656 18.7734C143.281 19.2656 142.941 19.793 142.637 20.3555C142.332 20.918 142.062 21.5156 141.828 22.1484C142.625 22.2656 143.281 22.3125 143.797 22.2891C144.336 22.2656 144.84 22.2305 145.309 22.1836C145.777 22.1133 146.258 22.0547 146.75 22.0078C147.242 21.9375 147.863 21.9141 148.613 21.9375C149.082 21.6797 149.633 21.5156 150.266 21.4453C150.922 21.3516 151.52 21.2109 152.059 21.0234C152.246 21.0938 152.41 21.2227 152.551 21.4102C152.691 21.5742 152.82 21.7383 152.938 21.9023C153.078 22.043 153.219 22.1719 153.359 22.2891C153.5 22.4062 153.676 22.4531 153.887 22.4297C153.98 22.5234 154.039 22.6406 154.062 22.7812C154.109 22.8984 154.145 23.0156 154.168 23.1328C154.191 23.25 154.227 23.3555 154.273 23.4492C154.344 23.5195 154.449 23.543 154.59 23.5195C154.238 24.293 153.828 24.8906 153.359 25.3125C152.914 25.7109 152.398 26.0156 151.812 26.2266C151.227 26.4375 150.57 26.6016 149.844 26.7188C149.141 26.8359 148.355 26.9766 147.488 27.1406C147.277 27.1875 147.102 27.1758 146.961 27.1055C146.82 27.0586 146.656 27.0352 146.469 27.0352C145.93 27.1523 145.285 27.2578 144.535 27.3516C143.785 27.4453 143.023 27.4805 142.25 27.457C141.477 27.4336 140.738 27.3281 140.035 27.1406C139.332 26.9766 138.758 26.6719 138.312 26.2266C138.125 26.0625 137.996 25.875 137.926 25.6641C137.879 25.4297 137.727 25.2539 137.469 25.1367C137.445 24.832 137.398 24.4922 137.328 24.1172C137.258 23.7422 137.188 23.3555 137.117 22.957C137.047 22.5352 136.988 22.125 136.941 21.7266C136.918 21.3281 136.941 20.9648 137.012 20.6367C137.082 20.2852 137.223 19.9688 137.434 19.6875C137.668 19.4062 137.75 19.1016 137.68 18.7734C137.797 18.75 137.867 18.6914 137.891 18.5977C137.914 18.4805 138.008 18.4336 138.172 18.457C138.312 18.0352 138.465 17.6367 138.629 17.2617C138.793 16.8867 138.957 16.5234 139.121 16.1719C139.309 15.8203 139.484 15.4688 139.648 15.1172C139.836 14.7422 140.012 14.332 140.176 13.8867C139.848 13.582 139.602 13.2539 139.438 12.9023C139.297 12.5273 139.191 12.1641 139.121 11.8125C139.051 11.4375 138.992 11.0625 138.945 10.6875C138.898 10.2891 138.816 9.89062 138.699 9.49219C138.934 9.14062 139.215 8.85938 139.543 8.64844C139.895 8.41406 140.27 8.22656 140.668 8.08594C141.066 7.94531 141.5 7.82812 141.969 7.73438C142.438 7.64063 142.93 7.53516 143.445 7.41797C144.383 7.11328 145.215 6.87891 145.941 6.71484C146.691 6.55078 147.418 6.42187 148.121 6.32812C148.848 6.21094 149.598 6.10547 150.371 6.01172C151.145 5.91797 152.023 5.77734 153.008 5.58984C153.219 5.80078 153.418 5.90625 153.605 5.90625C153.699 5.69531 153.805 5.63672 153.922 5.73047C154.062 5.80078 154.121 5.73047 154.098 5.51953C154.332 5.91797 154.625 6.25781 154.977 6.53906C155.352 6.79688 155.762 7.01953 156.207 7.20703ZM155.926 11.1797C156.09 10.6875 156.348 10.2656 156.699 9.91406C157.074 9.5625 157.473 9.26953 157.895 9.03516C158.34 8.77734 158.797 8.56641 159.266 8.40234C159.734 8.23828 160.18 8.09766 160.602 7.98047C161.539 7.58203 162.535 7.20703 163.59 6.85547C164.668 6.48047 165.758 6.15234 166.859 5.87109C167.984 5.58984 169.133 5.41406 170.305 5.34375C171.477 5.25 172.707 5.39063 173.996 5.76562C174.066 6 174.172 6.22266 174.312 6.43359C174.453 6.64453 174.594 6.85547 174.734 7.06641C174.898 7.27734 175.039 7.48828 175.156 7.69922C175.273 7.88672 175.344 8.08594 175.367 8.29688C175.602 8.50781 175.789 8.74219 175.93 9C176.07 9.23438 176.094 9.55078 176 9.94922C175.766 10.1367 175.531 10.3125 175.297 10.4766C175.086 10.6172 174.852 10.7461 174.594 10.8633C173.727 10.6523 172.848 10.582 171.957 10.6523C171.066 10.7227 170.27 10.7812 169.566 10.8281C169.355 10.6172 169.098 10.5117 168.793 10.5117C168.512 10.5117 168.207 10.5586 167.879 10.6523C167.574 10.7461 167.258 10.8398 166.93 10.9336C166.625 11.0273 166.332 11.0508 166.051 11.0039C165.816 11.1914 165.523 11.3203 165.172 11.3906C164.844 11.4375 164.48 11.4844 164.082 11.5312C164.059 11.6484 164.082 11.7305 164.152 11.7773C164.223 11.8008 164.234 11.8711 164.188 11.9883C164.328 12.1523 164.504 12.2695 164.715 12.3398C164.949 12.4102 165.184 12.4805 165.418 12.5508C165.676 12.6211 165.898 12.7148 166.086 12.832C166.273 12.9258 166.402 13.0898 166.473 13.3242C166.824 13.3242 167.129 13.4062 167.387 13.5703C167.645 13.7344 167.855 13.9336 168.02 14.168C168.184 14.4023 168.301 14.6602 168.371 14.9414C168.465 15.1992 168.512 15.4336 168.512 15.6445C168.582 15.832 168.664 15.9141 168.758 15.8906C168.852 15.8672 168.957 15.9141 169.074 16.0312C169.145 16.3359 169.32 16.6523 169.602 16.9805C169.883 17.2852 170.105 17.625 170.27 18C170.316 18.5859 170.352 19.1133 170.375 19.582C170.398 20.0273 170.316 20.4844 170.129 20.9531C169.777 21.8203 169.285 22.5938 168.652 23.2734C168.043 23.9531 167.34 24.5625 166.543 25.1016C165.77 25.6172 164.938 26.0625 164.047 26.4375C163.156 26.8125 162.289 27.1289 161.445 27.3867C161.352 27.3633 161.258 27.3633 161.164 27.3867C161.07 27.4102 161.047 27.3516 161.094 27.2109C160.906 27.375 160.695 27.4805 160.461 27.5273C160.25 27.5742 160.016 27.5859 159.758 27.5625C159.5 27.5625 159.23 27.5508 158.949 27.5273C158.691 27.5039 158.445 27.5156 158.211 27.5625C158.047 27.3984 157.895 27.2344 157.754 27.0703C157.637 26.9297 157.543 26.7422 157.473 26.5078C157.355 26.5078 157.297 26.4492 157.297 26.332C157.32 26.2148 157.285 26.1562 157.191 26.1562C157.332 25.9219 157.391 25.793 157.367 25.7695C157.367 25.7227 157.332 25.6875 157.262 25.6641C157.215 25.6406 157.168 25.6172 157.121 25.5938C157.074 25.5469 157.062 25.4883 157.086 25.418C157.18 25.2305 157.215 25.0195 157.191 24.7852C157.168 24.5273 157.145 24.2695 157.121 24.0117C157.098 23.7539 157.109 23.5078 157.156 23.2734C157.227 23.0391 157.402 22.8516 157.684 22.7109C158.48 22.8047 159.23 22.7812 159.934 22.6406C160.66 22.4766 161.34 22.2539 161.973 21.9727C162.605 21.6914 163.203 21.3867 163.766 21.0586C164.352 20.7305 164.926 20.4375 165.488 20.1797C165.559 19.9688 165.652 19.793 165.77 19.6523C165.91 19.5117 166.051 19.3828 166.191 19.2656C166.332 19.1484 166.461 19.0195 166.578 18.8789C166.695 18.7383 166.777 18.5625 166.824 18.3516C166.848 18.1875 166.801 18.0938 166.684 18.0703C166.59 18.0234 166.543 17.9297 166.543 17.7891L166.156 17.6836C165.711 17.4258 165.207 17.2148 164.645 17.0508C164.082 16.8633 163.602 16.6641 163.203 16.4531C162.945 16.5938 162.699 16.6289 162.465 16.5586C162.254 16.4883 161.973 16.418 161.621 16.3477C160.824 16.3008 160.051 16.2188 159.301 16.1016C158.574 15.9844 157.871 15.7734 157.191 15.4688C157.145 15.3516 157.086 15.2461 157.016 15.1523C156.945 15.0586 156.816 15.0352 156.629 15.082C156.488 14.8945 156.348 14.7188 156.207 14.5547C156.066 14.3672 155.938 14.168 155.82 13.957C155.867 13.6758 155.902 13.4414 155.926 13.2539C155.949 13.043 155.879 12.8438 155.715 12.6562C155.809 12.3516 155.879 12.1055 155.926 11.918C155.973 11.7305 155.973 11.4844 155.926 11.1797Z" fill="black"/>
</g>
<defs>
<filter id="filter0_d" x="0.0859375" y="0.914062" width="179.97" height="35.3607" filterUnits="userSpaceOnUse" color-interpolation-filters="sRGB">
<feFlood flood-opacity="0" result="BackgroundImageFix"/>
<feColorMatrix in="SourceAlpha" type="matrix" values="0 0 0 0 0 0 0 0 0 0 0 0 0 0 0 0 0 0 127 0"/>
<feOffset dy="4"/>
<feGaussianBlur stdDeviation="2"/>
<feColorMatrix type="matrix" values="0 0 0 0 0.94902 0 0 0 0 0.788235 0 0 0 0 0.298039 0 0 0 1 0"/>
<feBlend mode="normal" in2="BackgroundImageFix" result="effect1_dropShadow"/>
<feBlend mode="normal" in="SourceGraphic" in2="effect1_dropShadow" result="shape"/>
</filter>
</defs>
</svg>
