<svg width="24" height="24" viewBox="0 0 24 24" fill="none" xmlns="http://www.w3.org/2000/svg">
<path d="M18 11.5C18 14.5376 15.3137 17 12 17C8.68629 17 6 14.5376 6 11.5C6 8.46243 8.68629 6 12 6C15.3137 6 18 8.46243 18 11.5Z" fill="#FBBF24" stroke="#2249B3"/>
<path d="M12 1V4" stroke="#2249B3"/>
<path d="M15.5 4.5L17.5 2.5" stroke="#2249B3"/>
<path d="M6.5 2.5L8.5 4.5" stroke="#2249B3"/>
<path d="M9 21.5C9 21.2239 9.22386 21 9.5 21H14.5C14.7761 21 15 21.2239 15 21.5C15 21.7761 14.7761 22 14.5 22H9.5C9.22386 22 9 21.7761 9 21.5Z" fill="white" stroke="#2249B3" stroke-linecap="round"/>
<path d="M8.5 20C8.5 19.4477 8.94772 19 9.5 19H14.5C15.0523 19 15.5 19.4477 15.5 20C15.5 20.5523 15.0523 21 14.5 21H9.5C8.94772 21 8.5 20.5523 8.5 20Z" fill="white" stroke="#2249B3" stroke-linecap="round"/>
<path d="M15 17H9C8.44772 17 8 17.4477 8 18C8 18.5523 8.44772 19 9 19H15C15.5523 19 16 18.5523 16 18C16 17.4477 15.5523 17 15 17Z" fill="white" stroke="#2249B3" stroke-linecap="round"/>
</svg>
